<svg width="auto" height="auto" viewBox="0 0 24 24" fill="none" xmlns="http://www.w3.org/2000/svg">
<path fill-rule="evenodd" clip-rule="evenodd" d="M16 13.02V10.02C16 7.81088 14.2091 6.02002 12 6.02002C9.79086 6.02002 8 7.81088 8 10.02V13.02C8 13.7884 7.71115 14.4893 7.23611 15.02H16.7639C16.2889 14.4893 16 13.7884 16 13.02ZM17 13.02V10.02C17 7.2586 14.7614 5.02002 12 5.02002C9.23858 5.02002 7 7.2586 7 10.02V13.02C7 14.1246 6.10457 15.02 5 15.02V16.02H6H18H19V15.02C17.8954 15.02 17 14.1246 17 13.02ZM10 17.02C10 18.1246 10.8954 19.02 12 19.02C13.1046 19.02 14 18.1246 14 17.02H15C15 18.6769 13.6569 20.02 12 20.02C10.3431 20.02 9 18.6769 9 17.02H10Z" fill="currentColor" fill-opacity="0.8"/>
<circle cx="12" cy="6.97998" r="3" fill="#F24822"/>
</svg>
