<svg width="auto" height="auto" viewBox="0 0 24 24" fill="none" xmlns="http://www.w3.org/2000/svg">
<path fill-rule="evenodd" clip-rule="evenodd" d="M16 9.5V12.5C16 13.2684 16.2889 13.9692 16.7639 14.5H7.23611C7.71115 13.9692 8 13.2684 8 12.5V9.5C8 7.29086 9.79086 5.5 12 5.5C14.2091 5.5 16 7.29086 16 9.5ZM17 9.5V12.5C17 13.6046 17.8954 14.5 19 14.5V15.5H18H6H5V14.5C6.10457 14.5 7 13.6046 7 12.5V9.5C7 6.73858 9.23858 4.5 12 4.5C14.7614 4.5 17 6.73858 17 9.5ZM12 18.5C10.8954 18.5 10 17.6046 10 16.5H9C9 18.1569 10.3431 19.5 12 19.5C13.6569 19.5 15 18.1569 15 16.5H14C14 17.6046 13.1046 18.5 12 18.5Z" fill="currentColor" fill-opacity="0.8"/>
</svg>
