<svg width="auto" height="auto" viewBox="0 0 24 24" fill="none" xmlns="http://www.w3.org/2000/svg">
<path fill-rule="evenodd" clip-rule="evenodd" d="M12.0016 7.00162C12.2437 7.25204 12.4748 7.49109 12.6948 7.72005C14.8983 10.0124 16 11.2939 16 12.8519C16.0025 13.9143 15.612 14.9775 14.8284 15.788C13.2664 17.404 10.7337 17.404 9.17166 15.788C8.38812 14.9775 7.9975 13.9143 8.00001 12.8519C8.00001 11.2939 9.10181 10.0124 11.3053 7.72005C11.5254 7.49106 11.7565 7.25198 11.9986 7.00153L11.9996 7.00046L12.0001 7L12.0016 7.00162ZM9.80482 10.9112C10.3067 10.2309 11.0235 9.457 12.0001 8.4404C12.9765 9.45699 13.6934 10.2309 14.1952 10.9112C14.795 11.7245 15 12.2912 15 12.8519L15 12.8543C15.0001 12.9029 14.9992 12.9515 14.9971 13H9.00287C9.00085 12.9515 8.9999 12.9029 9.00001 12.8542V12.8519C9.00001 12.2912 9.20502 11.7245 9.80482 10.9112Z" fill="currentColor" fill-opacity="0.8"/>
</svg>
