<svg width="auto" height="auto" viewBox="0 0 24 24" fill="none" xmlns="http://www.w3.org/2000/svg">
<path fill-rule="evenodd" clip-rule="evenodd" d="M12.6948 7.72005C12.4748 7.49109 12.2437 7.25204 12.0016 7.00162C12.0011 7.00108 12.0006 7.00054 12.0001 7L11.9996 7.00046C11.9993 7.00081 11.9989 7.00117 11.9986 7.00153C11.7565 7.25198 11.5254 7.49106 11.3053 7.72005C9.10181 10.0124 8.00001 11.2939 8.00001 12.8519C7.9975 13.9143 8.38812 14.9775 9.17166 15.788C10.7337 17.404 13.2664 17.404 14.8284 15.788C15.612 14.9775 16.0025 13.9143 16 12.8519C16 11.2939 14.8983 10.0124 12.6948 7.72005ZM12.0001 8.4404C11.0235 9.457 10.3067 10.2309 9.80482 10.9112C9.20502 11.7245 9.00001 12.2912 9.00001 12.8519V12.8542C8.99808 13.672 9.29843 14.4804 9.89065 15.093C11.0596 16.3023 12.9405 16.3023 14.1095 15.093C14.7016 14.4804 15.0019 13.6721 15 12.8543L15 12.8519C15 12.2912 14.795 11.7245 14.1952 10.9112C13.6934 10.2309 12.9765 9.45699 12.0001 8.4404Z" fill="currentColor" fill-opacity="0.8"/>
</svg>
