<svg width="auto" height="auto" viewBox="0 0 24 24" fill="none" xmlns="http://www.w3.org/2000/svg">
<path fill-rule="evenodd" clip-rule="evenodd" d="M9.00049 5V8H10.0005V5H9.00049ZM18.1036 5.89644C16.9418 4.73468 15.0582 4.73468 13.8964 5.89646L11.1465 8.64641L11.8536 9.35351L14.6036 6.60356C15.3748 5.83232 16.6252 5.83231 17.3965 6.60355C18.1677 7.37478 18.1677 8.6252 17.3965 9.39643L14.6465 12.1464L15.3536 12.8535L18.1036 10.1035C19.2653 8.94177 19.2653 7.0582 18.1036 5.89644ZM5.89663 18.1035C4.73487 16.9418 4.73487 15.0582 5.89663 13.8964L8.64663 11.1464L9.35374 11.8535L6.60374 14.6035C5.8325 15.3748 5.8325 16.6252 6.60374 17.3964C7.37497 18.1677 8.62539 18.1677 9.39663 17.3964L12.1466 14.6464L12.8537 15.3535L10.1037 18.1035C8.94198 19.2653 7.05839 19.2653 5.89663 18.1035ZM19 15H16V14H19V15ZM15.0006 16V19H14.0006V16H15.0006ZM8 9H5V10H8V9Z" fill="currentColor" fill-opacity="0.8"/>
</svg>
