<svg width="auto" height="auto" viewBox="0 0 24 24" fill="none" xmlns="http://www.w3.org/2000/svg">
<path fill-rule="evenodd" clip-rule="evenodd" d="M8.0625 6.9375L8.76961 7.64461L11.2929 10.1679L12 10.875L12.7071 10.1679L15.2304 7.64461L15.9375 6.9375L15.2304 6.23039L12.7071 3.70711L12 3L11.2929 3.70711L8.76961 6.23039L8.0625 6.9375ZM14.5233 6.9375L12 9.46079L9.47671 6.9375L12 4.41421L14.5233 6.9375ZM8.0625 17.0625L8.76961 17.7696L11.2929 20.2929L12 21L12.7071 20.2929L15.2304 17.7696L15.9375 17.0625L15.2304 16.3554L12.7071 13.8321L12 13.125L11.2929 13.8321L8.76961 16.3554L8.0625 17.0625ZM14.5233 17.0625L12 19.5858L9.47671 17.0625L12 14.5392L14.5233 17.0625ZM3.70711 12.7071L3 12L3.70711 11.2929L6.23039 8.76961L6.9375 8.0625L7.64461 8.76961L10.1679 11.2929L10.875 12L10.1679 12.7071L7.64461 15.2304L6.9375 15.9375L6.23039 15.2304L3.70711 12.7071ZM6.9375 14.5233L9.46079 12L6.9375 9.47671L4.41421 12L6.9375 14.5233ZM13.125 12L13.8321 12.7071L16.3554 15.2304L17.0625 15.9375L17.7696 15.2304L20.2929 12.7071L21 12L20.2929 11.2929L17.7696 8.76961L17.0625 8.0625L16.3554 8.76961L13.8321 11.2929L13.125 12ZM19.5858 12L17.0625 14.5233L14.5392 12L17.0625 9.47671L19.5858 12Z" fill="currentColor" fill-opacity="0.8"/>
</svg>
