<svg width="auto" height="auto" viewBox="0 0 24 24" fill="none" xmlns="http://www.w3.org/2000/svg">
<path fill-rule="evenodd" clip-rule="evenodd" d="M4.10662 12C4.10662 9.41772 5.34663 7.12503 7.2637 5.68493L6.66752 4.89001C4.50914 6.51139 3.11304 9.09267 3.11304 12C3.11304 14.9074 4.50915 17.4887 6.66755 19.1101L7.26373 18.3152C5.34665 16.8751 4.10662 14.5824 4.10662 12ZM17.9552 11.9999C17.9552 15.2887 15.289 17.9549 12.0001 17.9549C8.71121 17.9549 6.04504 15.2887 6.04504 11.9999C6.04504 8.71097 8.71121 6.0448 12.0001 6.0448C15.289 6.0448 17.9552 8.71097 17.9552 11.9999ZM18.9552 11.9999C18.9552 15.841 15.8413 18.9549 12.0001 18.9549C8.15892 18.9549 5.04504 15.841 5.04504 11.9999C5.04504 8.15869 8.15892 5.0448 12.0001 5.0448C15.8413 5.0448 18.9552 8.15869 18.9552 11.9999Z" fill="currentColor" fill-opacity="0.8"/>
</svg>
