<svg width="auto" height="auto" viewBox="0 0 24 24" fill="none" xmlns="http://www.w3.org/2000/svg">
<path fill-rule="evenodd" clip-rule="evenodd" d="M12.0001 4.10662C14.5824 4.10662 16.8751 5.34663 18.3152 7.2637L19.1101 6.66752C17.4887 4.50914 14.9074 3.11304 12.0001 3.11304C9.09268 3.11304 6.51139 4.50915 4.89001 6.66755L5.68493 7.26373C7.12503 5.34665 9.41773 4.10662 12.0001 4.10662ZM17.955 11.9999C17.955 15.2887 15.2888 17.9549 12 17.9549C8.71107 17.9549 6.04489 15.2887 6.04489 11.9999C6.04489 8.71096 8.71107 6.04479 12 6.04479C15.2888 6.04479 17.955 8.71096 17.955 11.9999ZM18.955 11.9999C18.955 15.841 15.8411 18.9549 12 18.9549C8.15878 18.9549 5.04489 15.841 5.04489 11.9999C5.04489 8.15868 8.15878 5.04479 12 5.04479C15.8411 5.04479 18.955 8.15868 18.955 11.9999Z" fill="currentColor" fill-opacity="0.8"/>
</svg>
