<svg width="auto" height="auto" viewBox="0 0 24 24" fill="none" xmlns="http://www.w3.org/2000/svg">
<path fill-rule="evenodd" clip-rule="evenodd" d="M17.9551 12.0002C17.9551 15.2891 15.2889 17.9553 12 17.9553C8.71115 17.9553 6.04498 15.2891 6.04498 12.0002C6.04498 8.71134 8.71115 6.04517 12 6.04517C15.2889 6.04517 17.9551 8.71134 17.9551 12.0002ZM18.9551 12.0002C18.9551 15.8414 15.8412 18.9553 12 18.9553C8.15887 18.9553 5.04498 15.8414 5.04498 12.0002C5.04498 8.15905 8.15887 5.04517 12 5.04517C15.8412 5.04517 18.9551 8.15905 18.9551 12.0002ZM12 19.8935C9.41766 19.8935 7.12497 18.6535 5.68486 16.7364L4.88995 17.3326C6.51133 19.491 9.09261 20.8871 12 20.8871C14.9074 20.8871 17.4886 19.491 19.11 17.3326L18.3151 16.7364C16.875 18.6535 14.5823 19.8935 12 19.8935Z" fill="currentColor" fill-opacity="0.8"/>
</svg>
