<svg width="auto" height="auto" viewBox="0 0 24 24" fill="none" xmlns="http://www.w3.org/2000/svg">
<path fill-rule="evenodd" clip-rule="evenodd" d="M19.8935 12.0001C19.8935 14.5824 18.6535 16.8751 16.7364 18.3152L17.3326 19.1101C19.491 17.4887 20.8871 14.9074 20.8871 12.0001C20.8871 9.09268 19.491 6.51139 17.3326 4.89001L16.7364 5.68493C18.6535 7.12503 19.8935 9.41773 19.8935 12.0001ZM17.955 12.0002C17.955 15.2891 15.2889 17.9553 12 17.9553C8.71109 17.9553 6.04492 15.2891 6.04492 12.0002C6.04492 8.71131 8.71109 6.04514 12 6.04514C15.2889 6.04514 17.955 8.71131 17.955 12.0002ZM18.955 12.0002C18.955 15.8414 15.8412 18.9553 12 18.9553C8.15881 18.9553 5.04492 15.8414 5.04492 12.0002C5.04492 8.15902 8.15881 5.04514 12 5.04514C15.8412 5.04514 18.955 8.15902 18.955 12.0002Z" fill="currentColor" fill-opacity="0.8"/>
</svg>
