<svg width="auto" height="auto" viewBox="0 0 24 24" fill="none" xmlns="http://www.w3.org/2000/svg">
<path fill-rule="evenodd" clip-rule="evenodd" d="M12.5 5V4.5H11.5V5V7V7.5H12.5V7V5ZM7.40386 6.6967L7.05031 6.34315L6.3432 7.05026L6.69676 7.40381L8.11097 8.81802L8.46452 9.17158L9.17163 8.46447L8.81808 8.11092L7.40386 6.6967ZM17.3034 7.40381L17.657 7.05026L16.9499 6.34315L16.5963 6.6967L15.1821 8.11092L14.8285 8.46447L15.5356 9.17158L15.8892 8.81802L17.3034 7.40381ZM5 11.5H4.5V12.5H5H7H7.5V11.5H7H5ZM17 11.5H16.5V12.5H17H19H19.5V11.5H19H17ZM8.81806 15.8891L9.17161 15.5355L8.46451 14.8284L8.11095 15.182L6.69674 16.5962L6.34319 16.9498L7.05029 17.6569L7.40385 17.3033L8.81806 15.8891ZM15.889 15.182L15.5354 14.8284L14.8283 15.5355L15.1819 15.8891L16.5961 17.3033L16.9496 17.6569L17.6567 16.9498L17.3032 16.5962L15.889 15.182ZM12.5 17V16.5H11.5V17V19V19.5H12.5V19V17ZM13.4978 11.9979C13.4978 12.8264 12.8262 13.4979 11.9978 13.4979C11.1694 13.4979 10.4978 12.8264 10.4978 11.9979C10.4978 11.1695 11.1694 10.4979 11.9978 10.4979C12.8262 10.4979 13.4978 11.1695 13.4978 11.9979ZM14.4978 11.9979C14.4978 13.3786 13.3785 14.4979 11.9978 14.4979C10.6171 14.4979 9.4978 13.3786 9.4978 11.9979C9.4978 10.6172 10.6171 9.49792 11.9978 9.49792C13.3785 9.49792 14.4978 10.6172 14.4978 11.9979Z" fill="currentColor" fill-opacity="0.8"/>
</svg>
