<svg width="auto" height="auto" viewBox="0 0 24 24" fill="none" xmlns="http://www.w3.org/2000/svg">
<path d="M18.4236 5.57638C17.6236 4.77638 16.4236 4.77638 15.6236 5.57638L12.8236 8.37638L12.0236 7.67638C11.6236 7.27638 11.0236 7.27638 10.6236 7.67638C10.2236 8.07638 10.2236 8.67638 10.6236 9.07638L11.3236 9.77638L5.52357 15.5764C5.12357 15.9764 4.52357 17.4764 5.52357 18.4764C6.52357 19.4764 8.02357 18.8764 8.42357 18.4764L14.2236 12.6764L14.9236 13.3764C15.3236 13.7764 15.9236 13.7764 16.3236 13.3764C16.7236 12.9764 16.7236 12.3764 16.3236 11.9764L15.6236 11.2764L18.4236 8.47638C19.2236 7.57638 19.2236 6.37638 18.4236 5.57638ZM7.52357 17.4764H6.52357V16.4764L12.3236 10.6764L13.3236 11.6764C13.2236 11.6764 7.52357 17.4764 7.52357 17.4764Z" fill="currentColor" fill-opacity="0.8"/>
</svg>
