<svg width="auto" height="auto" viewBox="0 0 24 24" fill="none" xmlns="http://www.w3.org/2000/svg">
<path fill-rule="evenodd" clip-rule="evenodd" d="M15.3904 7.28672L8.3904 17.2867L7.57117 16.7133L14.5712 6.71326L15.3904 7.28672ZM15.9783 17.0801C17.2226 17.0801 18.1288 16.3671 18.126 15.3841C18.1288 14.6568 17.6743 14.1341 16.859 14.0176V13.9722C17.4896 13.8358 17.9129 13.3671 17.9101 12.7136C17.9129 11.8273 17.1573 11.1028 15.9953 11.1028C14.8646 11.1028 13.9896 11.7761 13.9669 12.7506H14.9811C14.9982 12.2619 15.4527 11.958 15.9896 11.958C16.5323 11.958 16.893 12.2875 16.8902 12.7761C16.893 13.2847 16.4726 13.6227 15.8703 13.6227H15.3561V14.4352H15.8703C16.6061 14.4352 17.0436 14.8046 17.0408 15.3301C17.0436 15.8443 16.5976 16.1966 15.9754 16.1966C15.3902 16.1966 14.9385 15.8926 14.9129 15.4182H13.8448C13.8732 16.4011 14.751 17.0801 15.9783 17.0801ZM6.91936 8.13958C6.70723 8.31973 6.26026 8.56238 5.8739 8.61017V7.81973C6.5164 7.64688 6.83701 7.1991 6.95441 7.03512L6.95441 7.03512L6.95442 7.03511C6.96437 7.02121 6.97286 7.00936 6.97996 6.99988H7.98132L7.98132 12.9999H6.98132L6.98132 10.9999H6.97996V8.13958H6.91936Z" fill="currentColor" fill-opacity="0.8"/>
</svg>
