<svg width="auto" height="auto" viewBox="0 0 24 24" fill="none" xmlns="http://www.w3.org/2000/svg">
<path fill-rule="evenodd" clip-rule="evenodd" d="M6.78381 12C6.78381 10.067 8.35082 8.5 10.2838 8.5C10.6333 8.5 10.9708 8.55119 11.2893 8.64653C10.3655 9.47013 9.78381 10.6669 9.78381 12C9.78381 13.3331 10.3655 14.5299 11.2893 15.3535C10.9708 15.4488 10.6333 15.5 10.2838 15.5C8.35082 15.5 6.78381 13.933 6.78381 12ZM12.289 16.0296C12.8954 16.3307 13.5792 16.5 14.3024 16.5C15.9748 16.5 17.4352 15.5949 18.2162 14.2505L17.3515 13.7482C16.7429 14.7958 15.6056 15.5 14.3024 15.5C13.949 15.5 13.6079 15.4482 13.2862 15.3519C13.6398 15.035 13.9429 14.663 14.1819 14.2497C14.5495 13.6063 14.779 12.7975 14.7838 12C14.779 11.2025 14.5495 10.3937 14.1819 9.75033C13.9429 9.33697 13.6398 8.96502 13.2862 8.64812C13.6079 8.55178 13.949 8.5 14.3024 8.5C15.6056 8.5 16.7429 9.20423 17.3515 10.2518L18.2162 9.74946C17.4352 8.40512 15.9748 7.5 14.3024 7.5C13.5792 7.5 12.8954 7.66931 12.289 7.97041C11.6853 7.66942 11.0044 7.5 10.2838 7.5C7.79853 7.5 5.78381 9.51472 5.78381 12C5.78381 14.4853 7.79853 16.5 10.2838 16.5C11.0044 16.5 11.6853 16.3306 12.289 16.0296ZM12.2878 9.13004C12.7069 9.42323 13.0589 9.806 13.3162 10.2509C13.6288 10.784 13.7886 11.3409 13.7838 12C13.7886 12.6591 13.6288 13.216 13.3162 13.7491C13.0589 14.194 12.7069 14.5768 12.2878 14.87C11.3781 14.2368 10.7838 13.1867 10.7838 12C10.7838 10.8133 11.3781 9.76318 12.2878 9.13004Z" fill="currentColor" fill-opacity="0.8"/>
</svg>
