<svg width="auto" height="auto" viewBox="0 0 24 24" fill="none" xmlns="http://www.w3.org/2000/svg">
<path d="M17.0624 11.524C17.1644 11.524 17.1984 11.473 17.2154 11.388L17.3854 10.793C17.4194 10.725 17.3684 10.64 17.2664 10.64H14.9034L15.0394 8.97399C15.1754 7.23999 14.0194 6.04999 11.5374 6.04999C9.24242 6.04999 7.96742 7.20599 7.96742 8.63399C7.96742 9.33099 8.34142 9.94299 9.10642 10.419V10.453C7.78042 10.453 6.67542 11.354 6.67542 12.527C6.67542 13.87 7.67842 14.397 8.68142 14.686C9.95642 15.043 10.3304 15.485 10.3304 16.25C10.3304 17.049 9.58242 17.406 8.98742 17.406C8.08642 17.406 7.84842 16.981 7.50842 16.352L7.08342 15.519C7.04942 15.434 6.99842 15.4 6.93042 15.417L6.70942 15.468C6.64142 15.485 6.59042 15.519 6.60742 15.604L6.89642 17.219C6.91342 17.304 6.91342 17.406 6.99842 17.457C7.20242 17.61 7.88242 17.95 8.71542 17.95C10.1604 17.95 11.2824 17.083 11.2994 15.706C11.2824 14.397 10.5004 13.887 9.25942 13.53C8.42642 13.292 7.62742 13.105 7.62742 12.119C7.62742 11.388 8.29042 10.997 8.93642 10.997C9.59942 10.997 9.92242 11.337 10.1264 11.66L10.7044 12.442C10.7554 12.527 10.7894 12.544 10.8574 12.527L11.0614 12.459C11.1464 12.425 11.1804 12.374 11.1804 12.306L10.9254 11.116C10.9084 11.014 10.8744 10.929 10.6194 10.81C10.3984 10.708 10.0754 10.606 9.83742 10.504C9.25942 10.062 8.85142 9.41599 8.85142 8.66799C8.85142 7.32499 10.0754 6.67899 11.5714 6.67899C13.0674 6.67899 14.0704 7.42699 14.0534 9.12699C14.0364 10.096 13.5094 10.776 12.6424 11.065C12.4384 11.133 12.3364 11.184 12.3364 11.32C12.3364 11.456 12.4384 11.524 12.5914 11.524H13.6284C13.6114 12.238 13.5944 13.394 13.5944 13.7V14.074C13.5944 14.312 13.5434 15.808 13.5434 16.505C13.5434 17.151 14.3594 17.95 15.1924 17.95C16.2124 17.95 16.9094 17.44 17.0794 17.27C17.1304 17.219 17.1644 17.151 17.1134 17.083L17.0284 16.93C16.9774 16.862 16.9094 16.845 16.8244 16.896C16.5864 17.049 16.0934 17.117 15.7024 17.117C15.3964 17.117 14.8184 16.896 14.8184 15.621V13.921C14.8184 13.139 14.8354 12.306 14.8694 11.524H17.0624Z" fill="currentColor" fill-opacity="0.8"/>
</svg>
