<svg width="auto" height="auto" viewBox="0 0 24 24" fill="none" xmlns="http://www.w3.org/2000/svg">
<path d="M8.00146 16.9417V10.9417H7V9.94165H8.00146V9.3689C8.00146 8.63257 8.19824 8.0634 8.5918 7.66138C8.98535 7.25936 9.45931 7.05835 10.1787 7.05835C10.4495 7.05835 10.7183 7.09432 10.9849 7.16626L10.9214 8.11841C10.7225 8.08032 10.5109 8.06128 10.2866 8.06128C9.90576 8.06128 9.51839 8.17342 9.31104 8.39771C9.10368 8.61776 9 8.93514 9 9.34985V9.94165H12.0015V9.4895C12.0015 8.72355 12.2194 8.12687 12.6553 7.69946C13.0954 7.27205 13.7153 7.05835 14.5151 7.05835C15.3766 7.05835 16.2751 7.36254 16.8585 7.66138L16.4501 8.55272C15.9501 8.31374 15.365 8.11841 14.5977 8.11841C14.0941 8.11841 13.5544 8.23055 13.3301 8.45483C13.11 8.67912 13 9.01978 13 9.47681V9.94165H14V10.9417H13V16.9417H12.0015V10.9417H9V16.9417H8.00146ZM17 16.9417H16V9.94165H17V16.9417Z" fill="currentColor" fill-opacity="0.8"/>
</svg>
