<svg width="auto" height="auto" viewBox="0 0 24 24" fill="none" xmlns="http://www.w3.org/2000/svg">
<path fill-rule="evenodd" clip-rule="evenodd" d="M4 7H11V17H4V7ZM3 6H4H11H12V7V17V18H11H4H3V17V7V6ZM5 9.56574L7.22265 8.08397L7.34861 8H8V8.5V15H10V16H5V15H7V9.43426L5 10.7676V9.56574Z" fill="currentColor" fill-opacity="0.8"/>
<path fill-rule="evenodd" clip-rule="evenodd" d="M14 7H21V17H14V7ZM13 6H14H21H22V7V17V18H21H14H13V17V7V6ZM20.0449 16H14.998V15.2969L17.6387 12.4062C18.5645 11.3945 18.998 10.8477 18.998 10.1094C18.998 9.26562 18.334 8.73438 17.4668 8.73438C16.541 8.73438 15.9512 9.33984 15.9512 10.25H15.0293C15.0293 8.84375 16.0957 7.89062 17.498 7.89062C18.9043 7.89062 19.9043 8.875 19.9043 10.1094C19.9043 10.9961 19.498 11.6836 18.123 13.1562L16.3262 15.0781V15.1406H20.0449V16Z" fill="currentColor" fill-opacity="0.8"/>
</svg>
