<svg width="auto" height="auto" viewBox="0 0 24 24" fill="none" xmlns="http://www.w3.org/2000/svg">
<path fill-rule="evenodd" clip-rule="evenodd" d="M8.48828 15.25H8.98828H8.99708H9.00591H9.01478H9.02368H9.03262H9.04158H9.05058H9.05962H9.06869H9.07778H9.08692H9.09608H9.10528H9.1145H9.12376H9.13305H9.14238H9.15173H9.16111H9.17053H9.17997H9.18944H9.19895H9.20848H9.21805H9.22764H9.23726H9.24691H9.25659H9.2663H9.27604H9.28581H9.2956H9.30542H9.31527H9.32514H9.33505H9.34498H9.35493H9.36492H9.37492H9.38496H9.39502H9.40511H9.41522H9.42536H9.43552H9.44571H9.45592H9.46616H9.47642H9.48671H9.49702H9.50735H9.51771H9.52809H9.53849H9.54892H9.55937H9.56984H9.58033H9.59085H9.60139H9.61195H9.62253H9.63313H9.64375H9.6544H9.66506H9.67575H9.68645H9.69718H9.70793H9.71869H9.72948H9.74028H9.7511H9.76195H9.77281H9.78369H9.79459H9.8055H9.81643H9.82739H9.83835H9.84934H9.86034H9.87136H9.8824H9.89345H9.90452H9.91561H9.92671H9.93783H9.94896H9.96011H9.97127H9.98245H9.99364H10.0048H10.0161H10.0273H10.0386H10.0498H10.0611H10.0724H10.0837H10.095H10.1063H10.1177H10.129H10.1404H10.1518H10.1631H10.1745H10.186H10.1974H10.2088H10.2203H10.2317H10.2432H10.2546H10.2661H10.2776H10.2891H10.3006H10.3122H10.3237H10.3352H10.3468H10.3583H10.3699H10.3815H10.393H10.4046H10.4162H10.4278H10.4394H10.451H10.4627H10.4743H10.4859H10.4976H10.5092H10.5209H10.5325H10.5442H10.5558H10.5675H10.5792H10.5909H10.6025H10.6142H10.6259H10.6376H10.6493H10.661H10.6727H10.6844H10.6961H10.7078H10.7195H10.7312H10.7429H10.7547H10.7664H10.7781H10.7898H10.8015H10.8132H10.825H10.8367H10.8484H10.8601H10.8718H10.8836H10.8953H10.907H10.9187H10.9304H10.9421H10.9538H10.9655H10.9772H10.9889H11.0006H11.0123H11.024H11.0357H11.0474H11.0591H11.0707H11.0824H11.0941H11.1057H11.1174H11.1291H11.1407H11.1523H11.164H11.1756H11.1872H11.1988H11.2105H11.2221H11.2337H11.2453H11.2568H11.2684H11.28H11.2915H11.3031H11.3146H11.3262H11.3377H11.3492H11.3607H11.3722H11.3837H11.3952H11.4067H11.4181H11.4296H11.441H11.4524H11.4639H11.4753H11.4867H11.498H11.5094H11.5208H11.5321H11.5435H11.5548H11.5661H11.5774H11.5887H11.5999H11.6112H11.6224H11.6337H11.6449H11.6561H11.6673H11.6785H11.6896H11.7008H11.7119H11.723H11.7341H11.7452H11.7562H11.7673H11.7783H11.7893H11.8003H11.8113H11.8223H11.8332H11.8441H11.855H11.8659H11.8768H11.8877H11.8985H11.9093H11.9201H11.9309H11.9416H11.9524H11.9631H11.9738H11.9845H11.9951H12.0058H12.0164H12.027H12.0375H12.0481H12.0586H12.0691H12.0796H12.0901H12.1005H12.1109H12.1213H12.1317H12.1421H12.1524H12.1627H12.173H12.1832H12.1934H12.2036H12.2138H12.224H12.2341H12.2442H12.2543H12.2643H12.2744H12.2844H12.2943H12.3043H12.3142H12.3241H12.334H12.3438H12.3536H12.3634H12.3731H12.3829H12.3926H12.4022H12.4119H12.4215H12.4311H12.4406H12.4501H12.4596H12.4691H12.4785H12.4879H12.4973H12.5066H12.516H12.5252H12.5345H12.5437H12.5529H12.562H12.5711H12.5802H12.5893H12.5983H12.6073H12.6163H12.6252H12.6341H12.6429H12.6517H12.6605H12.6693H12.678H12.6867H12.6953H12.7039H12.7125H12.721H12.7296H12.738H12.7465H12.7548H12.7632H12.7715H12.7798H12.7881H12.7963H12.8044H12.8126H12.8207H12.8287H12.8368H12.8447H12.8527H12.8606H12.8684H12.8763H12.8841H12.8918H12.8995H12.9072H12.9148H12.9224H12.9299H12.9374H12.9449H12.9523H12.9597H12.967H12.9743H12.9815H12.9888H12.9959H13.003H13.0101H13.0172H13.0241H13.0311H13.038H13.0449H13.0517H13.0584H13.0652H13.0719H13.0785H13.0851H13.0916H13.0981H13.1046H13.111H13.1174H13.1237H13.1299H13.1362H13.1423H13.1485H13.1545H13.1606H13.1665H13.1725H13.1784H13.1842H13.19H13.1957H13.2014H13.2071H13.2127H13.2182H13.2237H13.2291H13.2345H13.2399H13.2452H13.2504H13.2556H13.2607H13.2658H13.2709H13.2758H13.2808H13.2856H13.2905H13.2952H13.3H13.3046H13.3092H13.3138H13.3183H13.3228H13.3272H13.3315H13.3358H13.34H13.3442H13.3483H13.3524H13.3564H13.3603H13.3643H13.3681H13.3719H13.3756H13.3793H13.3829H13.3865H13.39H13.3934H13.3968H13.4001H13.4034H13.4066H13.4098H13.4129H13.4159H13.4189H13.4218H13.4246H13.4274H13.4302H13.4329H13.4355H13.438H13.4405H13.443H13.4453H13.4476H13.4499H13.4521H13.4542H13.4563H13.4583H13.4602H13.4621H13.4639H13.4657H13.4673H13.469H13.4705H13.472H13.4734H13.4748H13.4761H13.4773H13.4785H13.4796H13.4807H13.4816H13.4826H13.4834H13.4842H13.4849H13.4855H13.4861H13.4866H13.4871H13.4874H13.4877H13.488H13.4881H13.4882L13.4883 14.75L13.4882 14.25H13.4881H13.488H13.4877H13.4874H13.4871H13.4866H13.4861H13.4855H13.4849H13.4842H13.4834H13.4826H13.4816H13.4807H13.4796H13.4785H13.4773H13.4761H13.4748H13.4734H13.472H13.4705H13.469H13.4673H13.4657H13.4639H13.4621H13.4602H13.4583H13.4563H13.4542H13.4521H13.4499H13.4476H13.4453H13.443H13.4405H13.438H13.4355H13.4329H13.4302H13.4274H13.4246H13.4218H13.4189H13.4159H13.4129H13.4098H13.4066H13.4034H13.4001H13.3968H13.3934H13.39H13.3865H13.3829H13.3793H13.3756H13.3719H13.3681H13.3643H13.3603H13.3564H13.3524H13.3483H13.3442H13.34H13.3358H13.3315H13.3272H13.3228H13.3183H13.3138H13.3092H13.3046H13.3H13.2952H13.2905H13.2856H13.2808H13.2758H13.2709H13.2658H13.2607H13.2556H13.2504H13.2452H13.2399H13.2345H13.2291H13.2237H13.2182H13.2127H13.2071H13.2014H13.1957H13.19H13.1842H13.1784H13.1725H13.1665H13.1606H13.1545H13.1485H13.1423H13.1362H13.1299H13.1237H13.1174H13.111H13.1046H13.0981H13.0916H13.0851H13.0785H13.0719H13.0652H13.0584H13.0517H13.0449H13.038H13.0311H13.0241H13.0172H13.0101H13.003H12.9959H12.9888H12.9815H12.9743H12.967H12.9597H12.9523H12.9449H12.9374H12.9299H12.9224H12.9148H12.9072H12.8995H12.8918H12.8841H12.8763H12.8684H12.8606H12.8527H12.8447H12.8368H12.8287H12.8207H12.8126H12.8044H12.7963H12.7881H12.7798H12.7715H12.7632H12.7548H12.7465H12.738H12.7296H12.721H12.7125H12.7039H12.6953H12.6867H12.678H12.6693H12.6605H12.6517H12.6429H12.6341H12.6252H12.6163H12.6073H12.5983H12.5893H12.5802H12.5711H12.562H12.5529H12.5437H12.5345H12.5252H12.516H12.5066H12.4973H12.4879H12.4785H12.4691H12.4596H12.4501H12.4406H12.4311H12.4215H12.4119H12.4022H12.3926H12.3829H12.3731H12.3634H12.3536H12.3438H12.334H12.3241H12.3142H12.3043H12.2943H12.2844H12.2744H12.2643H12.2543H12.2442H12.2341H12.224H12.2138H12.2036H12.1934H12.1832H12.173H12.1627H12.1524H12.1421H12.1317H12.1213H12.1109H12.1005H12.0901H12.0796H12.0691H12.0586H12.0481H12.0375H12.027H12.0164H12.0058H11.9951H11.9845H11.9738H11.9631H11.9524H11.9416H11.9309H11.9201H11.9093H11.8985H11.8877H11.8768H11.8659H11.855H11.8441H11.8332H11.8223H11.8113H11.8003H11.7893H11.7783H11.7673H11.7562H11.7452H11.7341H11.723H11.7119H11.7008H11.6896H11.6785H11.6673H11.6561H11.6449H11.6337H11.6224H11.6112H11.5999H11.5887H11.5774H11.5661H11.5548H11.5435H11.5321H11.5208H11.5094H11.498H11.4867H11.4753H11.4639H11.4524H11.441H11.4296H11.4181H11.4067H11.3952H11.3837H11.3722H11.3607H11.3492H11.3377H11.3262H11.3146H11.3031H11.2915H11.28H11.2684H11.2568H11.2453H11.2337H11.2221H11.2105H11.1988H11.1872H11.1756H11.164H11.1523H11.1407H11.1291H11.1174H11.1057H11.0941H11.0824H11.0707H11.0591H11.0474H11.0357H11.024H11.0123H11.0006H10.9889H10.9772H10.9655H10.9538H10.9421H10.9304H10.9187H10.907H10.8953H10.8836H10.8718H10.8601H10.8484H10.8367H10.825H10.8132H10.8015H10.7898H10.7781H10.7664H10.7547H10.7429H10.7312H10.7195H10.7078H10.6961H10.6844H10.6727H10.661H10.6493H10.6376H10.6259H10.6142H10.6025H10.5909H10.5792H10.5675H10.5558H10.5442H10.5325H10.5209H10.5092H10.4976H10.4859H10.4743H10.4627H10.451H10.4394H10.4278H10.4162H10.4046H10.393H10.3815H10.3699H10.3583H10.3468H10.3352H10.3237H10.3122H10.3006H10.2891H10.2776H10.2661H10.2546H10.2432H10.2317H10.2203H10.2088H10.1974H10.186H10.1745H10.1631H10.1518H10.1404H10.129H10.1177H10.1063H10.095H10.0837H10.0724H10.0611H10.0498H10.0386H10.0273H10.0161H10.0048H9.99364H9.98245H9.97127H9.96011H9.94896H9.93783H9.92671H9.91561H9.90452H9.89345H9.8824H9.87136H9.86034H9.84934H9.83835H9.82739H9.81643H9.8055H9.79459H9.78369H9.77281H9.76195H9.7511H9.74028H9.72948H9.71869H9.70793H9.69718H9.69322C10.1781 13.1117 10.9275 12.5499 11.6533 12.0296L11.7348 11.9713C12.1319 11.6875 12.5632 11.3792 12.8883 10.9831C13.2579 10.5329 13.4858 9.98074 13.4858 9.23582V9.23549C13.4849 7.8604 12.3651 6.75 10.9883 6.75C9.61172 6.75 8.49078 7.86018 8.49078 9.23582H9.49078C9.49078 8.41798 10.1585 7.75 10.9883 7.75C11.8178 7.75 12.4852 8.41776 12.4858 9.23614C12.4857 9.74813 12.3389 10.0762 12.1153 10.3486C11.8768 10.6392 11.5466 10.8758 11.1108 11.1881L11.1108 11.1881L11.1108 11.1881L11.0707 11.2168C10.172 11.8611 9.05543 12.6949 8.50752 14.6126L8.48828 14.68V15.25ZM3.48828 9.81574L5.71093 8.33397L5.83689 8.25H6.48828V8.75V15.25H5.48828V9.68426L3.48828 11.0176V9.81574ZM20.3728 9.07009L20.4883 8.93148V8.25H19.9887H15.4887V9.25H18.9211L17.1046 11.4299L16.4211 12.25H17.4887C18.5918 12.25 19.5117 13.1733 19.5117 14.2677C19.5117 15.353 18.6011 16.25 17.4887 16.25C16.3929 16.25 15.5117 15.3519 15.5117 14.25H14.5117C14.5117 15.8899 15.8265 17.25 17.4887 17.25C19.1342 17.25 20.5117 15.9243 20.5117 14.2677C20.5117 12.9464 19.6314 11.8032 18.4291 11.4025L20.3728 9.07009Z" fill="currentColor" fill-opacity="0.8"/>
</svg>
