<svg width="auto" height="auto" viewBox="0 0 24 24" fill="none" xmlns="http://www.w3.org/2000/svg">
<path fill-rule="evenodd" clip-rule="evenodd" d="M17 12C17 14.761 14.761 17 12 17C9.239 17 7 14.761 7 12C7 9.239 9.239 7 12 7C14.761 7 17 9.239 17 12ZM18 12C18 15.313 15.314 18 12 18C8.686 18 6 15.313 6 12C6 8.687 8.686 6 12 6C15.314 6 18 8.687 18 12ZM11.488 12.383C11.4 12.599 11.355 12.889 11.355 13.253H12.355L12.371 13.016C12.4 12.76 12.513 12.538 12.711 12.348L13.027 12.047C13.275 11.807 13.448 11.59 13.547 11.395C13.646 11.197 13.695 10.987 13.695 10.765C13.695 10.279 13.543 9.902 13.238 9.637C12.934 9.369 12.505 9.234 11.953 9.234C11.406 9.234 10.973 9.375 10.656 9.656C10.341 9.937 10.181 10.326 10.176 10.824H11.309C11.312 10.677 11.344 10.552 11.402 10.45C11.426 10.408 11.455 10.37 11.488 10.336C11.55 10.273 11.622 10.226 11.705 10.196C11.78 10.169 11.862 10.156 11.953 10.156C12.359 10.156 12.563 10.376 12.563 10.816C12.563 10.891 12.553 10.964 12.532 11.036C12.512 11.103 12.484 11.169 12.445 11.234C12.367 11.364 12.21 11.535 11.973 11.746C11.738 11.955 11.577 12.166 11.488 12.383ZM11.418 14.023C11.301 14.135 11.242 14.279 11.242 14.453C11.242 14.625 11.3 14.767 11.414 14.879C11.531 14.991 11.684 15.047 11.875 15.047C11.995 15.047 12.102 15.024 12.192 14.979C12.244 14.953 12.29 14.919 12.332 14.879C12.449 14.767 12.508 14.625 12.508 14.453C12.508 14.279 12.448 14.135 12.328 14.023C12.211 13.909 12.06 13.852 11.875 13.852C11.781 13.852 11.695 13.867 11.617 13.896C11.543 13.925 11.477 13.967 11.418 14.023Z" fill="black" fill-opacity="0.8"/>
</svg>
