<svg width="auto" height="auto" viewBox="0 0 24 24" fill="none" xmlns="http://www.w3.org/2000/svg">
<path fill-rule="evenodd" clip-rule="evenodd" d="M17.5085 10.7344C18.0639 10.2069 18.5436 9.60045 18.9295 8.93323H17.7453C16.4798 10.7474 14.378 11.9332 11.9999 11.9332C9.62172 11.9332 7.51992 10.7474 6.25446 8.93323H5.07022C5.45619 9.60051 5.93589 10.207 6.49134 10.7345L4.89648 12.3295L5.6036 13.0365L7.26094 11.3791C7.97166 11.9025 8.77213 12.3113 9.63506 12.5779L9.01804 14.7992L9.98156 15.0668L10.6078 12.8125C11.0598 12.8919 11.525 12.9332 11.9999 12.9332C12.4747 12.9332 12.9398 12.8919 13.3919 12.8125L14.018 15.0668L14.9816 14.7992L14.3646 12.578C15.2276 12.3113 16.0281 11.9025 16.7389 11.379L18.3965 13.0366L19.1036 12.3294L17.5085 10.7344Z" fill="currentColor" fill-opacity="0.8"/>
</svg>
