<svg width="auto" height="auto" viewBox="0 0 24 24" fill="none" xmlns="http://www.w3.org/2000/svg">
<path fill-rule="evenodd" clip-rule="evenodd" d="M9.5 14C11.4593 14 13.1262 12.7478 13.7439 11H14.793C14.14 13.3085 12.0176 15 9.5 15C6.46243 15 4 12.5376 4 9.5C4 6.46243 6.46243 4 9.5 4C12.0176 4 14.14 5.6915 14.793 8H13.7439C13.1262 6.25221 11.4593 5 9.5 5C7.01472 5 5 7.01472 5 9.5C5 11.9853 7.01472 14 9.5 14ZM14.5 19C16.9853 19 19 16.9853 19 14.5C19 12.0147 16.9853 10 14.5 10C12.5407 10 10.8738 11.2522 10.2561 13H9.20703C9.85996 10.6915 11.9824 9 14.5 9C17.5376 9 20 11.4624 20 14.5C20 17.5376 17.5376 20 14.5 20C11.9824 20 9.85996 18.3085 9.20703 16H10.2561C10.8738 17.7478 12.5407 19 14.5 19Z" fill="black" fill-opacity="0.8"/>
</svg>
