<svg width="auto" height="auto" viewBox="0 0 24 24" fill="none" xmlns="http://www.w3.org/2000/svg">
<path fill-rule="evenodd" clip-rule="evenodd" d="M9.52518 17.6569L12.1768 15.0052L12.8839 15.7123L10.2323 18.364C8.96308 19.6332 6.9053 19.6332 5.63609 18.364C4.36689 17.0948 4.36689 15.037 5.63609 13.7678L8.28774 11.1161L8.99485 11.8232L6.3432 14.4749C5.46452 15.3536 5.46452 16.7782 6.3432 17.6569C7.22188 18.5355 8.6465 18.5355 9.52518 17.6569ZM15.7124 12.8839L15.0053 12.1768L17.6569 9.52514C18.5356 8.64646 18.5356 7.22183 17.6569 6.34316C16.7782 5.46448 15.3536 5.46448 14.4749 6.34316L11.8233 8.99481L11.1162 8.2877L13.7678 5.63605C15.037 4.36685 17.0948 4.36684 18.364 5.63605C19.6332 6.90525 19.6332 8.96304 18.364 10.2322L15.7124 12.8839ZM10.2617 14.5043L14.5044 10.2617L13.7384 9.49567L9.49572 13.7383L10.2617 14.5043Z" fill="currentColor" fill-opacity="0.8"/>
</svg>
