<svg width="auto" height="auto" viewBox="0 0 24 24" fill="none" xmlns="http://www.w3.org/2000/svg">
<path d="M12 18C15.314 18 18 15.314 18 12C18 8.686 15.314 6 12 6C8.686 6 6 8.686 6 12C6 15.314 8.686 18 12 18ZM12 17C9.054 17 7 14.946 7 12C7 9.054 9.054 7 12 7C14.946 7 17 9.054 17 12C17 14.946 14.946 17 12 17ZM11.5 11.333H12.5V13.5V15.333H11.5V13.5V11.333ZM11.334 9.333C11.334 8.965 11.632 8.667 12.001 8.667C12.369 8.667 12.667 8.965 12.667 9.333C12.667 9.702 12.369 10 12.001 10C11.632 10 11.334 9.702 11.334 9.333Z" fill="black" fill-opacity="0.8"/>
</svg>
