<svg width="auto" height="auto" viewBox="0 0 24 24" fill="none" xmlns="http://www.w3.org/2000/svg">
<path fill-rule="evenodd" clip-rule="evenodd" d="M19 12C19 15.866 15.866 19 12 19C8.13401 19 5 15.866 5 12C5 8.13401 8.13401 5 12 5C15.866 5 19 8.13401 19 12ZM20 12C20 16.4183 16.4183 20 12 20C7.58172 20 4 16.4183 4 12C4 7.58172 7.58172 4 12 4C16.4183 4 20 7.58172 20 12ZM7.5 12C7.5 11.8028 7.5127 11.6085 7.53735 11.4179L6.54565 11.2886C6.51562 11.5215 6.5 11.7589 6.5 12C6.5 15.0376 8.9624 17.5 12 17.5C12.241 17.5 12.4785 17.4845 12.7114 17.4544L12.582 16.4627C12.3914 16.4873 12.1973 16.5 12 16.5C9.51465 16.5 7.5 14.4853 7.5 12Z" fill="currentColor" fill-opacity="0.8"/>
</svg>
