<svg width="auto" height="auto" viewBox="0 0 24 24" fill="none" xmlns="http://www.w3.org/2000/svg">
<path fill-rule="evenodd" clip-rule="evenodd" d="M19 12C19 15.866 15.866 19 12 19C8.13401 19 5 15.866 5 12C5 8.13401 8.13401 5 12 5C15.866 5 19 8.13401 19 12ZM20 12C20 16.4183 16.4183 20 12 20C7.58172 20 4 16.4183 4 12C4 7.58172 7.58172 4 12 4C16.4183 4 20 7.58172 20 12ZM7.5 12C7.5 12.1973 7.5127 12.3915 7.53735 12.5821L6.54565 12.7114C6.51562 12.4786 6.5 12.2411 6.5 12C6.5 8.96243 8.9624 6.5 12 6.5C12.241 6.5 12.4785 6.51551 12.7114 6.54559L12.582 7.5373C12.3914 7.51269 12.1973 7.5 12 7.5C9.51465 7.5 7.5 9.51472 7.5 12Z" fill="currentColor" fill-opacity="0.8"/>
</svg>
