<svg width="auto" height="auto" viewBox="0 0 24 24" fill="none" xmlns="http://www.w3.org/2000/svg">
<path fill-rule="evenodd" clip-rule="evenodd" d="M19 12C19 15.866 15.866 19 12 19C8.13401 19 5 15.866 5 12C5 8.13401 8.13401 5 12 5C15.866 5 19 8.13401 19 12ZM20 12C20 16.4183 16.4183 20 12 20C7.58172 20 4 16.4183 4 12C4 7.58172 7.58172 4 12 4C16.4183 4 20 7.58172 20 12ZM7.5 11.9998C7.5 13.4523 8.18799 14.744 9.2561 15.5668L8.64648 16.3595C7.34106 15.3538 6.5 13.775 6.5 11.9998C6.5 10.2246 7.34106 8.64576 8.64648 7.64014L9.2561 8.43279C8.18799 9.25558 7.5 10.5473 7.5 11.9998Z" fill="currentColor" fill-opacity="0.8"/>
</svg>
