<svg width="auto" height="auto" viewBox="0 0 24 24" fill="none" xmlns="http://www.w3.org/2000/svg">
<path fill-rule="evenodd" clip-rule="evenodd" d="M19 12C19 15.866 15.866 19 12 19C8.13401 19 5 15.866 5 12C5 8.13401 8.13401 5 12 5C15.866 5 19 8.13401 19 12ZM20 12C20 16.4183 16.4183 20 12 20C7.58172 20 4 16.4183 4 12C4 7.58172 7.58172 4 12 4C16.4183 4 20 7.58172 20 12ZM12 16.5C11.8027 16.5 11.6086 16.4873 11.418 16.4627L11.2886 17.4544C11.5215 17.4845 11.759 17.5 12 17.5C15.0376 17.5 17.5 15.0376 17.5 12C17.5 11.7589 17.4844 11.5215 17.4543 11.2886L16.4626 11.4179C16.4873 11.6085 16.5 11.8028 16.5 12C16.5 14.4853 14.4854 16.5 12 16.5Z" fill="currentColor" fill-opacity="0.8"/>
</svg>
