<svg width="auto" height="auto" viewBox="0 0 24 24" fill="none" xmlns="http://www.w3.org/2000/svg">
<path fill-rule="evenodd" clip-rule="evenodd" d="M19 12C19 15.866 15.866 19 12 19C8.13401 19 5 15.866 5 12C5 8.13401 8.13401 5 12 5C15.866 5 19 8.13401 19 12ZM20 12C20 16.4183 16.4183 20 12 20C7.58172 20 4 16.4183 4 12C4 7.58172 7.58172 4 12 4C16.4183 4 20 7.58172 20 12ZM15.3535 16.3599L14.7439 15.5673C15.812 14.7445 16.5 13.4527 16.5 12.0003C16.5 10.5478 15.812 9.25606 14.7439 8.43327L15.3535 7.64062C16.6589 8.64626 17.5 10.225 17.5 12.0003C17.5 13.7755 16.6589 15.3543 15.3535 16.3599Z" fill="currentColor" fill-opacity="0.8"/>
</svg>
