<svg width="auto" height="auto" viewBox="0 0 24 24" fill="none" xmlns="http://www.w3.org/2000/svg">
<path fill-rule="evenodd" clip-rule="evenodd" d="M19 12C19 15.866 15.866 19 12 19C8.13401 19 5 15.866 5 12C5 8.13401 8.13401 5 12 5C15.866 5 19 8.13401 19 12ZM20 12C20 16.4183 16.4183 20 12 20C7.58172 20 4 16.4183 4 12C4 7.58172 7.58172 4 12 4C16.4183 4 20 7.58172 20 12ZM12 7.5C11.8027 7.5 11.6086 7.5127 11.418 7.53731L11.2886 6.54559C11.5215 6.51552 11.759 6.5 12 6.5C15.0376 6.5 17.5 8.96243 17.5 12C17.5 12.2411 17.4844 12.4785 17.4543 12.7114L16.4626 12.5821C16.4873 12.3915 16.5 12.1973 16.5 12C16.5 9.51472 14.4854 7.5 12 7.5Z" fill="currentColor" fill-opacity="0.8"/>
</svg>
