<svg width="auto" height="auto" viewBox="0 0 24 24" fill="none" xmlns="http://www.w3.org/2000/svg">
<path fill-rule="evenodd" clip-rule="evenodd" d="M19 12C19 15.866 15.866 19 12 19C8.13401 19 5 15.866 5 12C5 8.13401 8.13401 5 12 5C15.866 5 19 8.13401 19 12ZM20 12C20 16.4183 16.4183 20 12 20C7.58172 20 4 16.4183 4 12C4 7.58172 7.58172 4 12 4C16.4183 4 20 7.58172 20 12ZM12 16.4998C10.5476 16.4998 9.25586 15.8117 8.43311 14.7437L7.64038 15.3534C8.646 16.6588 10.2249 17.4998 12 17.4998C13.7751 17.4998 15.354 16.6588 16.3596 15.3534L15.5669 14.7437C14.7441 15.8117 13.4524 16.4998 12 16.4998Z" fill="currentColor" fill-opacity="0.8"/>
</svg>
