<svg width="auto" height="auto" viewBox="0 0 24 24" fill="none" xmlns="http://www.w3.org/2000/svg">
<path fill-rule="evenodd" clip-rule="evenodd" d="M19 12C19 15.866 15.866 19 12 19C8.13401 19 5 15.866 5 12C5 8.13401 8.13401 5 12 5C15.866 5 19 8.13401 19 12ZM20 12C20 16.4183 16.4183 20 12 20C7.58172 20 4 16.4183 4 12C4 7.58172 7.58172 4 12 4C16.4183 4 20 7.58172 20 12ZM12 7.5C10.5476 7.5 9.25586 8.18813 8.43311 9.25616L7.64038 8.64642C8.646 7.34105 10.2249 6.5 12 6.5C13.7751 6.5 15.354 7.34105 16.3596 8.64642L15.5669 9.25616C14.7441 8.18813 13.4524 7.5 12 7.5Z" fill="currentColor" fill-opacity="0.8"/>
</svg>
