<svg width="auto" height="auto" viewBox="0 0 24 24" fill="none" xmlns="http://www.w3.org/2000/svg">
<path fill-rule="evenodd" clip-rule="evenodd" d="M11.3732 18.0801H12.6311C12.9113 17.7598 13.2468 17.4827 13.6261 17.2614C15.1045 16.3991 17.631 16.3523 19.0125 17.3699H19.5H20.5V16.3699V8.16992C20.5 8.16992 19.7031 5.91992 16.08 5.91992C14.2054 5.91992 13.1784 6.52228 12.6237 7.10367C12.2354 7.51075 12.0786 7.90755 12.0246 8.08008H11.9755C11.9214 7.90755 11.7647 7.51075 11.3763 7.10367C10.8217 6.52228 9.79466 5.91992 7.92 5.91992C4.29688 5.91992 3.5 8.16992 3.5 8.16992V16.3599V17.3599H4.5H4.9875C6.37023 16.3414 8.89887 16.3901 10.3762 17.2555C10.7568 17.4784 11.0929 17.7576 11.3732 18.0801ZM12.5 8.36892V16.8257C12.6952 16.6686 12.9032 16.5254 13.1222 16.3976C14.0494 15.8568 15.2368 15.6019 16.3634 15.6107C17.3691 15.6186 18.4441 15.8381 19.3152 16.3699H19.5V8.3969C19.491 8.38138 19.481 8.36466 19.47 8.34686C19.3839 8.20869 19.2344 8.00821 18.9955 7.80214C18.535 7.40486 17.6653 6.91992 16.08 6.91992C14.4938 6.91992 13.7397 7.40361 13.3855 7.75491C13.1974 7.94153 13.0904 8.12197 13.0325 8.24478C13.0035 8.30628 12.9872 8.35254 12.9797 8.37635C12.9759 8.38818 12.9744 8.39416 12.9746 8.39332L12.9762 8.38671L12.9778 8.37927L12.9789 8.37446L12.9794 8.37178L12.9797 8.37037C12.9797 8.37025 12.9798 8.37012 12.9745 8.36892H12.5ZM11.5 8.36892H11.0255C11.0202 8.37012 11.0203 8.37025 11.0203 8.37037L11.0206 8.37178L11.0211 8.37446L11.0222 8.37927L11.0238 8.38671L11.0254 8.39332C11.0256 8.39416 11.0241 8.38818 11.0203 8.37635C11.0128 8.35254 10.9965 8.30628 10.9675 8.24478C10.9096 8.12197 10.8026 7.94153 10.6145 7.75491C10.2603 7.40361 9.5062 6.91992 7.92 6.91992C6.33472 6.91992 5.46506 7.40486 5.00449 7.80214C4.76559 8.00821 4.61608 8.20869 4.53006 8.34686C4.51898 8.36466 4.50898 8.38138 4.5 8.3969V16.3599H4.68483C5.55673 15.8276 6.63285 15.6084 7.63934 15.6013C8.76668 15.5933 9.95473 15.8497 10.8817 16.3927C11.0993 16.5202 11.306 16.6629 11.5 16.8193V8.36892Z" fill="currentColor" fill-opacity="0.8"/>
</svg>
