<svg width="auto" height="auto" viewBox="0 0 24 24" fill="none" xmlns="http://www.w3.org/2000/svg">
<g clip-path="url(#clip0_15_148)">
<path fill-rule="evenodd" clip-rule="evenodd" d="M14 10V11H14.5C14.7761 11 15 11.2239 15 11.5V16.5C15 16.7761 14.7761 17 14.5 17H8.5C8.22386 17 8 16.7761 8 16.5V11.5C8 11.2239 8.22386 11 8.5 11H13V8.5C13 7.11929 14.1193 6 15.5 6C16.8807 6 18 7.11929 18 8.5V10H17V8.5C17 7.67157 16.3284 7 15.5 7C14.6716 7 14 7.67157 14 8.5V10Z" fill="black" fill-opacity="0.8"/>
</g>
<defs>
<clipPath id="clip0_15_148">
<rect width="auto" height="auto" fill="white"/>
</clipPath>
</defs>
</svg>
