<svg width="auto" height="auto" viewBox="0 0 24 24" fill="none" xmlns="http://www.w3.org/2000/svg">
<path fill-rule="evenodd" clip-rule="evenodd" d="M13.3522 6H18C18.5523 6 19 6.44772 19 7V17C19 17.5523 18.5523 18 18 18H14V15.7539C14.5693 15.6009 15.0251 15.393 15.3822 15.1787C15.7328 14.9683 15.9835 14.7548 16.1504 14.5878C16.2338 14.5044 16.2963 14.4327 16.3398 14.379C16.3616 14.3521 16.3786 14.3296 16.3912 14.3124C16.3975 14.3038 16.4027 14.2965 16.4069 14.2906L16.4122 14.2829L16.4143 14.2798L16.4152 14.2785L16.4156 14.2778C16.4158 14.2775 16.416 14.2773 16 13.9999C15.584 13.7226 15.5842 13.7223 15.5843 13.722L15.5847 13.7215L15.5853 13.7206L15.5863 13.7191L15.5872 13.7178C15.5874 13.7176 15.5866 13.7187 15.5848 13.7211C15.5813 13.7258 15.574 13.7356 15.5625 13.7498C15.5397 13.778 15.5005 13.8235 15.4433 13.8807C15.329 13.9951 15.1422 14.1565 14.8678 14.3212C14.6435 14.4557 14.3575 14.5944 14 14.7111V12.5V12H13.5H12.0136C12.0825 10.6846 12.403 9.21417 12.7324 8.00656C12.9169 7.32984 13.1016 6.74513 13.24 6.32999C13.2822 6.20335 13.32 6.09262 13.3522 6ZM12.2959 6H6C5.44772 6 5 6.44772 5 7V17C5 17.5523 5.44772 18 6 18H13V15.9434C12.6912 15.9796 12.3583 15.9999 12 15.9999C10.4121 15.9999 9.32279 15.6017 8.61775 15.1787C8.26717 14.9683 8.01649 14.7548 7.84957 14.5878C7.76617 14.5044 7.70374 14.4327 7.66021 14.379C7.63843 14.3521 7.62137 14.3296 7.60876 14.3124C7.60245 14.3038 7.59726 14.2965 7.59314 14.2906L7.58776 14.2829L7.58567 14.2798L7.58477 14.2785L7.58436 14.2778C7.58417 14.2775 7.58397 14.2773 8 13.9999C8.41603 13.7226 8.41584 13.7223 8.41566 13.722L8.41532 13.7215L8.4147 13.7206L8.41371 13.7191L8.41278 13.7178C8.41263 13.7176 8.41342 13.7187 8.41517 13.7211C8.41867 13.7258 8.42602 13.7356 8.43745 13.7498C8.46032 13.778 8.49946 13.8235 8.55668 13.8807C8.67101 13.9951 8.85783 14.1565 9.13225 14.3212C9.67721 14.6481 10.5879 14.9999 12 14.9999C12.3663 14.9999 12.6988 14.9762 13 14.9355V13H11.5H11V12.5C11 10.932 11.3894 9.13018 11.7676 7.74344C11.9581 7.04516 12.1484 6.44237 12.2913 6.01376C12.2928 6.00915 12.2943 6.00457 12.2959 6ZM4 7C4 5.89543 4.89543 5 6 5H18C19.1046 5 20 5.89543 20 7V17C20 18.1046 19.1046 19 18 19H6C4.89543 19 4 18.1046 4 17V7ZM15 11V9H16V11H15ZM8 9V11H9V9H8Z" fill="currentColor" fill-opacity="0.8"/>
</svg>
