<svg width="auto" height="auto" viewBox="0 0 24 24" fill="none" xmlns="http://www.w3.org/2000/svg">
<path fill-rule="evenodd" clip-rule="evenodd" d="M16.5566 13.7168H15.4395C15.416 12.2559 15.8457 11.7676 16.6035 11.3027C17.0801 11.0098 17.4316 10.6035 17.4316 10.0254C17.4316 9.33398 16.8926 8.89258 16.2285 8.89258C15.6309 8.89258 15.041 9.25586 14.9941 10.084H13.8066C13.8574 8.67773 14.9121 7.9082 16.2285 7.9082C17.6621 7.9082 18.623 8.76758 18.623 10.0371C18.623 10.8926 18.2168 11.4902 17.5176 11.916C16.8066 12.3535 16.5566 12.7441 16.5566 13.7168ZM16.8105 15.3105C16.8105 15.7441 16.4551 16.0918 16.0293 16.0918C15.5996 16.0918 15.248 15.7441 15.248 15.3105C15.248 14.8848 15.5996 14.5332 16.0293 14.5332C16.4551 14.5332 16.8105 14.8848 16.8105 15.3105ZM5.37695 16.0176L8.48806 8.01758H9.57317L12.6843 16.0176H11.6113L10.8335 14.0176L7.22769 14.0176L6.44991 16.0176H5.37695ZM9.03062 9.38147L10.4447 13.0176L7.61658 13.0176L9.03062 9.38147Z" fill="currentColor" fill-opacity="0.8"/>
</svg>
