<svg width="auto" height="auto" viewBox="0 0 24 24" fill="none" xmlns="http://www.w3.org/2000/svg">
<rect x="2" y="4" width="19" height="16" rx="4" fill="#FFEB00"/>
<path fill-rule="evenodd" clip-rule="evenodd" d="M16.0366 13.8086H14.9736C14.9736 12.2832 15.2417 11.7884 16.1228 11.3191C16.6166 11.0562 17.0278 10.6953 17.0278 10.1172C17.0278 9.42578 16.6137 8.98437 15.8247 8.98437C15.0356 8.98437 14.6087 9.28906 14.5618 10.1172H13.47C13.5208 8.71094 14.3223 8 15.8247 8C17.327 8 18.0993 8.84766 18.0993 10.1172C18.0993 10.9727 17.5818 11.6677 16.8808 12.1094C16.1514 12.5689 16.0366 12.6698 16.0366 13.8086ZM16.2604 15.3673C16.2604 15.8009 15.9049 16.1486 15.4791 16.1486C15.0494 16.1486 14.6979 15.8009 14.6979 15.3673C14.6979 14.9415 15.0494 14.59 15.4791 14.59C15.9049 14.59 16.2604 14.9415 16.2604 15.3673ZM5 16.1094L8.11111 8.10938H9.14257L12.2537 16.1094H11.2344L10.4469 14.0844L6.80681 14.0844L6.01931 16.1094H5ZM8.62684 9.40429L10.0774 13.1344L7.17625 13.1344L8.62684 9.40429Z" fill="black"/>
</svg>
