<svg width="auto" height="auto" viewBox="0 0 24 24" fill="none" xmlns="http://www.w3.org/2000/svg">
<path fill-rule="evenodd" clip-rule="evenodd" d="M10.3965 5H3.89648V4H10.8965H11.3965V4.5V9.70802C12.132 10.0294 12.6829 10.6943 12.8465 11.5H18.1894L16.0429 9.35355L16.75 8.64645L19.75 11.6464L20.1036 12L19.75 12.3536L16.75 15.3536L16.0429 14.6464L18.1894 12.5H12.8465C12.6829 13.3057 12.132 13.9706 11.3965 14.292V19.5V20H10.8965H3.89648V19H10.3965V14.5C9.01577 14.5 7.89648 13.3807 7.89648 12C7.89648 10.6193 9.01577 9.5 10.3965 9.5V5ZM10.3965 13.5C11.2249 13.5 11.8965 12.8284 11.8965 12C11.8965 11.1716 11.2249 10.5 10.3965 10.5C9.56806 10.5 8.89648 11.1716 8.89648 12C8.89648 12.8284 9.56806 13.5 10.3965 13.5Z" fill="currentColor" fill-opacity="0.8"/>
</svg>
