<svg width="auto" height="auto" viewBox="0 0 24 24" fill="none" xmlns="http://www.w3.org/2000/svg">
<path fill-rule="evenodd" clip-rule="evenodd" d="M10.0732 5H3.57324V4H10.5732H11.0732V4.5V9.70802C11.9562 10.0938 12.5732 10.9748 12.5732 12C12.5732 13.0252 11.9562 13.9062 11.0732 14.292V19.5V20H10.5732H3.57324V19H10.0732V14.5C8.69253 14.5 7.57324 13.3807 7.57324 12C7.57324 10.6193 8.69253 9.5 10.0732 9.5V5ZM17.0732 12.7071L19.7197 15.3536L20.4268 14.6464L17.7803 12L20.4268 9.35355L19.7197 8.64645L17.0732 11.2929L14.4268 8.64645L13.7197 9.35355L16.3661 12L13.7197 14.6464L14.4268 15.3536L17.0732 12.7071ZM10.0732 13.5C10.9017 13.5 11.5732 12.8284 11.5732 12C11.5732 11.1716 10.9017 10.5 10.0732 10.5C9.24481 10.5 8.57324 11.1716 8.57324 12C8.57324 12.8284 9.24481 13.5 10.0732 13.5Z" fill="currentColor" fill-opacity="0.8"/>
</svg>
