<svg width="auto" height="auto" viewBox="0 0 24 24" fill="none" xmlns="http://www.w3.org/2000/svg">
<path fill-rule="evenodd" clip-rule="evenodd" d="M15.2929 6.78035L16.791 8.27843C15.0551 8.17609 13.8701 8.46129 13.0555 9.05368C12.0265 9.80207 11.7195 10.9493 11.53 11.9597C11.4918 12.1639 11.4591 12.3572 11.4276 12.5441L11.4276 12.5442L11.4276 12.5442C11.3762 12.8484 11.3277 13.1358 11.2622 13.4262C11.16 13.8799 11.0314 14.259 10.8358 14.5618C10.6475 14.8533 10.3888 15.0875 9.99324 15.2426C9.75453 15.3362 9.45743 15.4042 9.08493 15.4325C8.86489 14.567 8.08045 13.9268 7.14648 13.9268C6.04191 13.9268 5.14648 14.8222 5.14648 15.9268C5.14648 17.0314 6.04191 17.9268 7.14648 17.9268C8.07543 17.9268 8.85645 17.2935 9.08133 16.4351C9.5696 16.4049 9.99231 16.3171 10.3583 16.1735C10.9589 15.938 11.3798 15.5627 11.6759 15.1043C11.9647 14.6571 12.1252 14.1455 12.2378 13.6461C12.308 13.3345 12.3658 12.9938 12.4212 12.6669L12.4212 12.6669L12.4213 12.6669C12.452 12.4859 12.4819 12.3092 12.5129 12.1439C12.6985 11.1542 12.954 10.364 13.6437 9.86241C14.2391 9.42939 15.2525 9.14552 17.0653 9.30085L15.2929 11.0732L16 11.7803L18.5 9.28035L18.8536 8.9268L18.5 8.57324L16 6.07324L15.2929 6.78035ZM8.14648 15.9268C8.14648 15.3745 7.69877 14.9268 7.14648 14.9268C6.5942 14.9268 6.14648 15.3745 6.14648 15.9268C6.14648 16.4791 6.5942 16.9268 7.14648 16.9268C7.6499 16.9268 8.06643 16.5548 8.1362 16.0707L8.14648 15.9268Z" fill="black" fill-opacity="0.8"/>
</svg>
