<svg width="auto" height="auto" viewBox="0 0 24 24" fill="none" xmlns="http://www.w3.org/2000/svg">
<path fill-rule="evenodd" clip-rule="evenodd" d="M5 12C5 15.866 8.13401 19 12 19C15.866 19 19 15.866 19 12C19 8.13401 15.866 5 12 5C8.13401 5 5 8.13401 5 12ZM12 4C7.58172 4 4 7.58172 4 12C4 16.4183 7.58172 20 12 20C16.4183 20 20 16.4183 20 12C20 7.58172 16.4183 4 12 4ZM12 7.74992C12.4142 7.74992 12.75 8.08571 12.75 8.49992V11.6259C12.75 12.0401 12.4142 12.3759 12 12.3759C11.5858 12.3759 11.25 12.0401 11.25 11.6259V8.49992C11.25 8.08571 11.5858 7.74992 12 7.74992ZM13 14.9999C13 14.4476 12.5523 13.9999 12 13.9999C11.4477 13.9999 11 14.4476 11 14.9999V15.0685C11 15.6208 11.4477 16.0685 12 16.0685C12.5523 16.0685 13 15.6208 13 15.0685V14.9999Z" fill="currentColor" fill-opacity="0.8"/>
</svg>
