<svg width="auto" height="auto" viewBox="0 0 24 24" fill="none" xmlns="http://www.w3.org/2000/svg">
<path fill-rule="evenodd" clip-rule="evenodd" d="M16.1266 5.04503C16.5171 4.65451 17.1503 4.65451 17.5408 5.04503L18.955 6.45924C19.3455 6.84977 19.3455 7.48293 18.955 7.87346L17.5408 9.2877L14.7124 6.45932L14.0053 7.16642L16.8336 9.9948L8.56249 18.266L5.02695 18.9731L5.73406 15.4375L16.1266 5.04503ZM4.81449 20.0354L9.0555 19.1872L19.6621 8.58056C20.4431 7.79951 20.4431 6.53318 19.6621 5.75214L18.2479 4.33792C17.4668 3.55687 16.2005 3.55687 15.4195 4.33792L4.81286 14.9445L3.96466 19.1855L3.7522 20.2478L4.81449 20.0354Z" fill="currentColor" fill-opacity="0.8"/>
</svg>
