<svg width="auto" height="auto" viewBox="0 0 24 24" fill="none" xmlns="http://www.w3.org/2000/svg">
<path fill-rule="evenodd" clip-rule="evenodd" d="M12 5C10.7733 5 10 5.71059 10 6.5C10 6.9208 10.1997 7.35052 10.5583 7.68559C10.8159 7.92633 10.8114 8.26423 10.7502 8.46821C10.6903 8.66802 10.488 9 10.0761 9H7V19H17V16.4933C16.5675 16.8084 16.0493 17 15.5 17C13.9422 17 13 15.5347 13 14C13 12.4653 13.9422 11 15.5 11C16.0493 11 16.5675 11.1916 17 11.5067V9H13.9239C13.512 9 13.3097 8.66802 13.2498 8.46821C13.1886 8.26422 13.1841 7.92633 13.4417 7.68559C13.8003 7.35052 14 6.9208 14 6.5C14 5.71059 13.2267 5 12 5ZM9 6.5C9 4.9422 10.4653 4 12 4C13.5347 4 15 4.9422 15 6.5C15 7.04931 14.8084 7.56747 14.4933 8H17C17.5523 8 18 8.44772 18 9V12.0761C18 12.488 17.668 12.6903 17.4682 12.7502C17.2642 12.8114 16.9263 12.8159 16.6856 12.5583C16.3505 12.1997 15.9208 12 15.5 12C14.7106 12 14 12.7733 14 14C14 15.2267 14.7106 16 15.5 16C15.9208 16 16.3505 15.8003 16.6856 15.4417C16.9263 15.1841 17.2642 15.1886 17.4682 15.2498C17.668 15.3097 18 15.512 18 15.9239V19C18 19.5523 17.5523 20 17 20H7C6.44772 20 6 19.5523 6 19V9C6 8.44772 6.44772 8 7 8H9.50668C9.19161 7.56747 9 7.04931 9 6.5Z" fill="currentColor" fill-opacity="0.8"/>
</svg>
