<svg width="auto" height="auto" viewBox="0 0 24 24" fill="none" xmlns="http://www.w3.org/2000/svg">
<path d="M6.94054 15.6135L7.81854 13.1415H11.3455L12.2235 15.6135H13.3315L10.1275 6.88647H9.03754L5.83154 15.6135H6.93954H6.94054ZM8.15054 12.2035L9.54854 8.26647H9.61654L11.0145 12.2045H8.15054V12.2035ZM14.2305 17.1135H18.1685V16.3635H15.5605V16.3295L16.6685 15.3575C17.6065 14.5395 18.0155 14.0625 18.0155 13.3635C18.0155 12.4775 17.2485 11.8125 16.1235 11.8125C14.9985 11.8125 14.1975 12.4605 14.1975 13.4325H15.0835C15.0835 12.9025 15.4935 12.5455 16.1065 12.5455C16.6865 12.5455 17.1295 12.8695 17.1295 13.3805C17.1295 13.8235 16.8225 14.1475 16.2255 14.6765L14.2315 16.4485V17.1135H14.2305Z" fill="currentColor" fill-opacity="0.8"/>
</svg>
