<svg width="auto" height="auto" viewBox="0 0 24 24" fill="none" xmlns="http://www.w3.org/2000/svg">
<path d="M6.00204 16.423L6.88004 13.951H10.409L11.285 16.423H12.395L9.19004 7.69603H8.09904L4.89404 16.423H6.00204ZM7.21204 13.013L8.61004 9.07603H8.67804L10.076 13.014H7.21204V13.013ZM13.6 16.423H19.106V15.485H15.049V15.417L17.009 13.321C18.509 11.714 18.953 10.964 18.953 9.99703C18.953 8.65003 17.862 7.57703 16.328 7.57703C14.798 7.57703 13.634 8.61703 13.634 10.15H14.64C14.64 9.15703 15.283 8.49703 16.293 8.49703C17.239 8.49703 17.963 9.07703 17.963 9.99703C17.963 10.802 17.491 11.399 16.481 12.503L13.601 15.656V16.423H13.6Z" fill="currentColor" fill-opacity="0.8"/>
</svg>
