<svg width="auto" height="auto" viewBox="0 0 24 24" fill="none" xmlns="http://www.w3.org/2000/svg">
<path d="M7.24047 16.832L8.11847 14.36H11.6455L12.5235 16.832H13.6315L10.4275 8.10497H9.33747L6.13147 16.832H7.23947H7.24047ZM8.45047 13.422L9.84847 9.48497H9.91647L11.3145 13.423H8.45047V13.422ZM13.9305 12.468H17.8685V11.718H15.2605V11.684L16.3685 10.713C17.3065 9.89397 17.7155 9.41697 17.7155 8.71797C17.7155 7.83197 16.9485 7.16797 15.8235 7.16797C14.6985 7.16797 13.8975 7.81497 13.8975 8.78697H14.7835C14.7835 8.25797 15.1935 7.89997 15.8065 7.89997C16.3865 7.89997 16.8295 8.22397 16.8295 8.73497C16.8295 9.17897 16.5225 9.50197 15.9255 10.031L13.9315 11.804V12.468H13.9305Z" fill="black" fill-opacity="0.8"/>
</svg>
