<svg width="auto" height="auto" viewBox="0 0 24 24" fill="none" xmlns="http://www.w3.org/2000/svg">
<path fill-rule="evenodd" clip-rule="evenodd" d="M3.29285 11.4823L3.6464 11.1287L11.6464 3.1287L12 2.77515L12.3535 3.1287L20.3535 11.1287L20.7071 11.4823L20 12.1894L19.6464 11.8358L12 4.18936L4.70706 11.4823L12 18.7751L15.6464 15.1287L16 14.7751L16.7071 15.4823L16.3535 15.8358L12.3535 19.8358L12 20.1894L11.6464 19.8358L3.6464 11.8358L3.29285 11.4823ZM11.207 10.9823H13.4999C16.8136 10.9823 19.4999 13.6685 19.4999 16.9823C19.4999 18.6391 18.8284 20.1391 17.7426 21.2249L17.0355 20.5178C17.9403 19.613 18.4999 18.363 18.4999 16.9823C18.4999 14.2208 16.2614 11.9823 13.4999 11.9823H11.207L12.8535 13.6287L12.1464 14.3358L9.64639 11.8358L9.29283 11.4823L9.64639 11.1287L12.1464 8.6287L12.8535 9.33581L11.207 10.9823Z" fill="currentColor" fill-opacity="0.8"/>
</svg>
