<svg width="auto" height="auto" viewBox="0 0 24 24" fill="none" xmlns="http://www.w3.org/2000/svg">
<path fill-rule="evenodd" clip-rule="evenodd" d="M4.64648 5.35356L8.29293 9.00001H6.00004V10H9.50004H10V9.50001V6.00001H9.00004V8.2929L5.35359 4.64645L4.64648 5.35356ZM15.7071 9.00001L19.3536 5.35356L18.6465 4.64645L15 8.2929V6.00001H14V9.50001V10H14.5H18V9.00001H15.7071ZM15.7071 15L19.3536 18.6465L18.6465 19.3536L15 15.7071V18H14V14.5V14H14.5H18V15H15.7071ZM8.29293 15L4.64648 18.6465L5.35359 19.3536L9.00004 15.7071V18H10V14.5V14H9.50004H6.00004V15H8.29293Z" fill="currentColor" fill-opacity="0.8"/>
</svg>
