<svg width="auto" height="auto" viewBox="0 0 24 24" fill="none" xmlns="http://www.w3.org/2000/svg">
<path fill-rule="evenodd" clip-rule="evenodd" d="M19 12C19 15.866 15.866 19 12 19C8.13401 19 5 15.866 5 12C5 8.13401 8.13401 5 12 5C15.866 5 19 8.13401 19 12ZM20 12C20 16.4183 16.4183 20 12 20C7.58172 20 4 16.4183 4 12C4 7.58172 7.58172 4 12 4C16.4183 4 20 7.58172 20 12ZM11.9111 14.8654L15.9111 10.3655L15.0889 9.63472L11.4764 13.6986L8.8889 11.1112L8.1111 11.889L11.1111 14.8889L11.5236 15.3014L11.9111 14.8654Z" fill="currentColor" fill-opacity="0.8"/>
</svg>
