<svg width="auto" height="auto" viewBox="0 0 24 24" fill="none" xmlns="http://www.w3.org/2000/svg">
<path fill-rule="evenodd" clip-rule="evenodd" d="M15.5732 10.5732C15.5732 13.3346 13.3347 15.5732 10.5732 15.5732C7.81182 15.5732 5.57324 13.3346 5.57324 10.5732C5.57324 7.81179 7.81182 5.57321 10.5732 5.57321C13.3347 5.57321 15.5732 7.81179 15.5732 10.5732ZM14.4477 15.1547C13.4023 16.0396 12.0501 16.5732 10.5732 16.5732C7.25953 16.5732 4.57324 13.8869 4.57324 10.5732C4.57324 7.2595 7.25953 4.57321 10.5732 4.57321C13.887 4.57321 16.5732 7.2595 16.5732 10.5732C16.5732 12.0501 16.0397 13.4023 15.1548 14.4476L19.4268 18.7197L18.7197 19.4268L14.4477 15.1547Z" fill="currentColor" fill-opacity="0.8"/>
</svg>
