<svg width="auto" height="auto" viewBox="0 0 24 24" fill="none" xmlns="http://www.w3.org/2000/svg">
<path fill-rule="evenodd" clip-rule="evenodd" d="M14.4267 10.8748C14.4267 12.8364 12.8365 14.4266 10.875 14.4266C8.9134 14.4266 7.32324 12.8364 7.32324 10.8748C7.32324 8.91328 8.9134 7.32312 10.875 7.32312C12.8365 7.32312 14.4267 8.91328 14.4267 10.8748ZM13.7205 14.4277C12.9411 15.0527 11.9517 15.4266 10.875 15.4266C8.36112 15.4266 6.32324 13.3887 6.32324 10.8748C6.32324 8.361 8.36112 6.32312 10.875 6.32312C13.3888 6.32312 15.4267 8.361 15.4267 10.8748C15.4267 11.9517 15.0527 12.9412 14.4276 13.7206L17.6768 16.9698L16.9697 17.6769L13.7205 14.4277Z" fill="currentColor" fill-opacity="0.8"/>
</svg>
