<svg width="auto" height="auto" viewBox="0 0 24 24" fill="none" xmlns="http://www.w3.org/2000/svg">
<path fill-rule="evenodd" clip-rule="evenodd" d="M13.5 9.25C13.5 7.86929 14.6193 6.75 16 6.75C17.3808 6.75 18.5 7.86929 18.5 9.25C18.5 10.6307 17.3808 11.75 16 11.75C14.6193 11.75 13.5 10.6307 13.5 9.25ZM16 5.75C14.067 5.75 12.5 7.317 12.5 9.25C12.5 10.692 13.372 11.9303 14.6175 12.4664C13.4804 12.8331 12.5409 13.64 12 14.6864C11.4591 13.64 10.5197 12.8331 9.38252 12.4664C10.628 11.9303 11.5 10.692 11.5 9.25C11.5 7.317 9.93303 5.75 8.00002 5.75C6.06702 5.75 4.5 7.317 4.5 9.25C4.5 10.692 5.37203 11.9303 6.6175 12.4664C4.80861 13.0497 3.5 14.747 3.5 16.75V17.75V18.25H4H11.5H12H12.5H20H20.5V17.75V16.75C20.5 14.747 19.1914 13.0497 17.3825 12.4664C18.628 11.9303 19.5 10.692 19.5 9.25C19.5 7.317 17.933 5.75 16 5.75ZM12.5 17.25V16.75C12.5 14.817 14.067 13.25 16 13.25C17.933 13.25 19.5 14.817 19.5 16.75V17.25H12.5ZM11.5 16.75V17.25H4.5V16.75C4.5 14.817 6.067 13.25 8 13.25C9.933 13.25 11.5 14.817 11.5 16.75ZM5.5 9.25C5.5 7.86929 6.6193 6.75 8.00002 6.75C9.38075 6.75 10.5 7.86929 10.5 9.25C10.5 10.6307 9.38075 11.75 8.00002 11.75C6.6193 11.75 5.5 10.6307 5.5 9.25Z" fill="currentColor" fill-opacity="0.8"/>
</svg>
