<svg width="auto" height="auto" viewBox="0 0 24 24" fill="none" xmlns="http://www.w3.org/2000/svg">
<path fill-rule="evenodd" clip-rule="evenodd" d="M19 12C19 15.866 15.866 19 12 19C8.13401 19 5 15.866 5 12C5 8.13401 8.13401 5 12 5C15.866 5 19 8.13401 19 12ZM20 12C20 16.4183 16.4183 20 12 20C7.58172 20 4 16.4183 4 12C4 7.58172 7.58172 4 12 4C16.4183 4 20 7.58172 20 12ZM11.9999 16C10.1361 16 8.57 14.7252 8.12596 13H9.17064C9.58248 14.1652 10.6937 15 11.9999 15C13.3062 15 14.4174 14.1652 14.8292 13H15.8739C15.4299 14.7252 13.8638 16 11.9999 16ZM15.5 10.125C15.5 10.6082 15.1082 11 14.625 11C14.1418 11 13.75 10.6082 13.75 10.125C13.75 9.64175 14.1418 9.25 14.625 9.25C15.1082 9.25 15.5 9.64175 15.5 10.125ZM9.125 11C9.60825 11 10 10.6082 10 10.125C10 9.64175 9.60825 9.25 9.125 9.25C8.64175 9.25 8.25 9.64175 8.25 10.125C8.25 10.6082 8.64175 11 9.125 11Z" fill="currentColor" fill-opacity="0.8"/>
</svg>
