<svg width="auto" height="auto" viewBox="0 0 24 24" fill="none" xmlns="http://www.w3.org/2000/svg">
<path fill-rule="evenodd" clip-rule="evenodd" d="M14 10.2162L12.5385 6.56248L12 5.21619L11.4615 6.56248L10 10.2162H6.54796H5L6.18159 11.2162L9 13.6014L7.93641 17.2761L7.5 18.7838L8.79695 17.8997L12 15.7162L15.195 17.8462L16.5 18.7162L16.0493 17.2139L15 13.7162L17.8571 11.2162L19 10.2162H17.4814H14ZM16.3386 11.2162H14H13.323L13.0715 10.5876L12 7.90877L10.9285 10.5876L10.677 11.2162H10H7.72955L9.64601 12.8381L10.1408 13.2568L9.96057 13.8795L9.23336 16.3919L11.4367 14.8899L11.9938 14.5102L12.5547 14.8841L14.7443 16.3438L14.0422 14.0035L13.8573 13.3873L14.3415 12.9636L16.3386 11.2162Z" fill="black" fill-opacity="0.8"/>
</svg>
