<svg width="auto" height="auto" viewBox="0 0 24 24" fill="none" xmlns="http://www.w3.org/2000/svg">
<path fill-rule="evenodd" clip-rule="evenodd" d="M14.5 9.70482L12.527 4.597L11.9893 3.20496L11.4556 4.59854L9.5 9.70482H4.22658H2.5L3.90751 10.7048L8.37531 13.8791L6.64395 19.1683L6.11147 20.795L7.494 19.7859L11.9893 16.5048L16.4847 19.7859L17.8672 20.795L17.3347 19.1683L15.6033 13.8791L20.0874 10.7048L21.5 9.70482H19.7692H14.5ZM18.3566 10.7048H14.5H13.8143L13.5672 10.0651L11.9933 5.99059L10.4339 10.0625L10.1878 10.7048H9.5H5.63409L8.95449 13.0639L9.55476 13.4904L9.32569 14.1902L8.02647 18.1592L11.3998 15.6971L11.9893 15.2668L12.5789 15.6971L15.9522 18.1592L14.653 14.1902L14.4235 13.4891L15.0256 13.0629L18.3566 10.7048Z" fill="currentColor" fill-opacity="0.8"/>
</svg>
