<svg width="auto" height="auto" viewBox="0 0 24 24" fill="none" xmlns="http://www.w3.org/2000/svg">
<path fill-rule="evenodd" clip-rule="evenodd" d="M7.5 9C7.5 9.82843 8.17157 10.5 9 10.5C9.82843 10.5 10.5 9.82843 10.5 9C10.5 8.17157 9.82843 7.5 9 7.5C8.17157 7.5 7.5 8.17157 7.5 9ZM13.5 9C13.5 9.82843 14.1716 10.5 15 10.5C15.8284 10.5 16.5 9.82843 16.5 9C16.5 8.17157 15.8284 7.5 15 7.5C14.1716 7.5 13.5 8.17157 13.5 9ZM15 16.5C14.1716 16.5 13.5 15.8284 13.5 15C13.5 14.1716 14.1716 13.5 15 13.5C15.8284 13.5 16.5 14.1716 16.5 15C16.5 15.8284 15.8284 16.5 15 16.5ZM7.5 15C7.5 15.8284 8.17157 16.5 9 16.5C9.82843 16.5 10.5 15.8284 10.5 15C10.5 14.1716 9.82843 13.5 9 13.5C8.17157 13.5 7.5 14.1716 7.5 15Z" fill="currentColor" fill-opacity="0.8"/>
</svg>
