<svg width="auto" height="auto" viewBox="0 0 24 24" fill="none" xmlns="http://www.w3.org/2000/svg">
<path fill-rule="evenodd" clip-rule="evenodd" d="M18.6096 9.68765L17.4349 11.156C17.4268 11.1039 17.418 11.0519 17.4084 11C17.2569 10.1806 16.9203 9.40189 16.419 8.72539C15.7169 7.77797 14.7289 7.08128 13.6008 6.73808C12.4726 6.39489 11.264 6.42337 10.1533 6.81933C9.36015 7.10206 8.64691 7.56145 8.06479 8.15764C7.83166 8.3964 7.61956 8.6571 7.43178 8.93718L7.43192 8.93728L8.26237 9.49406L8.26252 9.49416C8.79977 8.69282 9.58035 8.08538 10.4891 7.76143C11.3979 7.43748 12.3867 7.41418 13.3097 7.69496C14.2327 7.97574 15.041 8.54574 15.6154 9.32088C16.1002 9.97502 16.3966 10.746 16.4774 11.5506L14.2774 10.084L13.7227 10.916L16.7227 12.916L17.1041 13.1703L17.3905 12.8123L19.3905 10.3123L18.6096 9.68765ZM6.60962 11.1877L4.60962 13.6877L5.39049 14.3123L6.56519 12.844C6.57329 12.8961 6.58213 12.9481 6.59172 13C6.74323 13.8194 7.07981 14.5981 7.58113 15.2746C8.2832 16.222 9.27119 16.9187 10.3994 17.2619C11.5275 17.6051 12.7361 17.5766 13.8468 17.1807C14.64 16.8979 15.3532 16.4386 15.9353 15.8424C16.168 15.6041 16.3797 15.344 16.5672 15.0646L16.5683 15.0628L16.5682 15.0627L15.7377 14.5059L15.7376 14.5058L15.7365 14.5074C15.1993 15.308 14.4192 15.9148 13.511 16.2386C12.6023 16.5625 11.6134 16.5858 10.6904 16.305C9.76744 16.0243 8.95911 15.4543 8.38471 14.6791C7.89996 14.025 7.60346 13.254 7.52271 12.4494L9.7227 13.916L10.2774 13.084L7.2774 11.084L6.89598 10.8297L6.60962 11.1877Z" fill="black" fill-opacity="0.8"/>
</svg>
