<svg width="auto" height="auto" viewBox="0 0 24 24" fill="none" xmlns="http://www.w3.org/2000/svg">
<path fill-rule="evenodd" clip-rule="evenodd" d="M12.5 7.02469V5.5H11.5V7.02469C9.13779 7.25922 7.25922 9.13779 7.02469 11.5H5.5V12.5H7.02469C7.25922 14.8622 9.13779 16.7408 11.5 16.9753V18.5H12.5V16.9753C14.8622 16.7408 16.7408 14.8622 16.9753 12.5H18.5V11.5H16.9753C16.7408 9.13779 14.8622 7.25922 12.5 7.02469ZM11.5 8.03095V10.5H12.5V8.03095C14.3094 8.25657 15.7434 9.69064 15.9691 11.5H13.5V12.5H15.9691C15.7434 14.3094 14.3094 15.7434 12.5 15.9691V13.5H11.5V15.9691C9.69064 15.7434 8.25657 14.3094 8.03095 12.5H10.5V11.5H8.03095C8.25657 9.69064 9.69064 8.25657 11.5 8.03095Z" fill="black" fill-opacity="0.8"/>
</svg>
