<svg width="auto" height="auto" viewBox="0 0 24 24" fill="none" xmlns="http://www.w3.org/2000/svg">
<path fill-rule="evenodd" clip-rule="evenodd" d="M11.5 10V7.02469C9.13776 7.25922 7.25919 9.13779 7.02466 11.5H10L10 12.5H7.02466C7.25919 14.8622 9.13776 16.7408 11.5 16.9753V14H12.5V16.9753C14.8622 16.7408 16.7408 14.8622 16.9753 12.5H14V11.5H16.9753C16.7408 9.13779 14.8622 7.25922 12.5 7.02469V10H11.5ZM17.9794 11.5C17.739 8.5851 15.4149 6.26101 12.5 6.02054V4H11.5V6.02054C8.58507 6.26101 6.26098 8.5851 6.02051 11.5H4V12.5H6.02051C6.26098 15.4149 8.58507 17.739 11.5 17.9795V20H12.5V17.9795C15.4149 17.739 17.739 15.4149 17.9794 12.5H20V11.5H17.9794Z" fill="currentColor" fill-opacity="0.8"/>
</svg>
