<svg width="auto" height="auto" viewBox="0 0 24 24" fill="none" xmlns="http://www.w3.org/2000/svg">
<path d="M7.96298 14.173C9.10498 14.173 9.70098 13.56 9.90598 13.133H9.95598V14.02H10.963V9.70698C10.963 7.62798 9.37798 7.38898 8.54298 7.38898C7.55398 7.38898 6.42898 7.72998 5.91798 8.92298L6.87298 9.26398C7.09398 8.78698 7.61798 8.27598 8.57698 8.27598C9.50198 8.27598 9.95698 8.76598 9.95698 9.60598V9.63898C9.95698 10.125 9.46298 10.083 8.26998 10.236C7.05598 10.394 5.72998 10.662 5.72998 12.162C5.72998 13.441 6.71998 14.173 7.96298 14.173V14.173ZM8.11598 13.27C7.31498 13.27 6.73598 12.912 6.73598 12.213C6.73598 11.446 7.43398 11.208 8.21798 11.105C8.64398 11.055 9.78598 10.935 9.95698 10.73V11.65C9.95698 12.469 9.30898 13.27 8.11598 13.27ZM15.44 16.61C17.008 16.61 18.27 15.895 18.27 14.208V7.47498H17.298V8.51498H17.196C16.974 8.17298 16.566 7.38898 15.286 7.38898C13.633 7.38898 12.491 8.70198 12.491 10.713C12.491 12.759 13.684 13.918 15.27 13.918C16.548 13.918 16.957 13.168 17.179 12.81H17.264V14.14C17.264 15.23 16.497 15.725 15.44 15.725C14.251 15.725 13.834 15.098 13.565 14.735L12.764 15.298C13.174 15.984 13.978 16.611 15.44 16.611V16.61ZM15.406 13.014C14.145 13.014 13.496 12.06 13.496 10.696C13.496 9.36598 14.128 8.29298 15.406 8.29298C16.633 8.29298 17.281 9.28098 17.281 10.696C17.281 12.145 16.616 13.014 15.406 13.014Z" fill="black" fill-opacity="0.8"/>
</svg>
