<svg width="auto" height="auto" viewBox="0 0 24 24" fill="none" xmlns="http://www.w3.org/2000/svg">
<path d="M6.01098 15.068L6.88898 12.596H10.417L11.295 15.068H12.403L9.19698 6.341H8.10698L4.90198 15.068H6.00998H6.01098ZM7.22098 11.658L8.61898 7.721H8.68698L10.085 11.659H7.22098V11.658ZM16.268 17.658C17.836 17.658 19.098 16.943 19.098 15.256V8.523H18.126V9.563H18.024C17.802 9.221 17.393 8.437 16.114 8.437C14.461 8.437 13.319 9.75 13.319 11.761C13.319 13.807 14.512 14.966 16.097 14.966C17.376 14.966 17.785 14.216 18.007 13.858H18.092V15.188C18.092 16.278 17.325 16.773 16.268 16.773C15.079 16.773 14.661 16.146 14.393 15.783L13.592 16.346C14.001 17.032 14.806 17.659 16.268 17.659V17.658ZM16.234 14.062C14.973 14.062 14.324 13.108 14.324 11.744C14.324 10.414 14.955 9.341 16.234 9.341C17.461 9.341 18.109 10.329 18.109 11.744C18.109 13.193 17.444 14.062 16.234 14.062Z" fill="currentColor" fill-opacity="0.8"/>
</svg>
