<svg width="auto" height="auto" viewBox="0 0 24 24" fill="none" xmlns="http://www.w3.org/2000/svg">
<path d="M5.88525 16L6.68994 13.7344H9.92432L10.729 16H11.7446L8.80713 8H7.80713L4.86963 16H5.88525ZM6.99463 12.875L8.27588 9.26562H8.33838L9.61963 12.875H6.99463Z" fill="black" fill-opacity="0.8"/>
<path d="M18.0835 10.5H19.0835C18.7866 8.95313 17.4897 7.89062 15.8022 7.89062C13.7515 7.89062 12.3022 9.46875 12.3022 12C12.3022 14.5312 13.7397 16.1094 15.8647 16.1094C17.771 16.1094 19.1304 14.8398 19.1304 12.8594V12H16.0835V12.8594H18.1929C18.1655 14.2969 17.2202 15.2031 15.8647 15.2031C14.3804 15.2031 13.2397 14.0781 13.2397 12C13.2397 9.92188 14.3804 8.79688 15.8022 8.79688C16.9585 8.79688 17.7437 9.44922 18.0835 10.5Z" fill="black" fill-opacity="0.8"/>
</svg>
