<svg width="auto" height="auto" viewBox="0 0 24 24" fill="none" xmlns="http://www.w3.org/2000/svg">
<path d="M6.03354 16.314L6.91154 13.842H10.4395L11.3175 16.314H12.4255L9.22154 7.58698H8.13054L4.92554 16.314H6.03354ZM7.24354 12.904L8.64154 8.96697H8.70954L10.1075 12.905H7.24354V12.904ZM17.8995 11.339H19.0245C18.7795 9.92198 17.5685 8.94197 15.9995 8.94197C14.1175 8.94197 12.7435 10.359 12.7435 12.682C12.7435 14.982 14.0785 16.413 16.0495 16.413C17.8135 16.413 19.0745 15.256 19.0745 13.42V12.592H16.2165V13.498H18.0125C17.9885 14.67 17.2135 15.412 16.0495 15.412C14.7675 15.412 13.8335 14.442 13.8335 12.674C13.8335 10.913 14.7735 9.94398 16.0065 9.94398C16.9725 9.94398 17.6265 10.476 17.8995 11.339Z" fill="currentColor" fill-opacity="0.8"/>
</svg>
