<svg width="auto" height="auto" viewBox="0 0 24 24" fill="none" xmlns="http://www.w3.org/2000/svg">
<path fill-rule="evenodd" clip-rule="evenodd" d="M9.90385 7.04714C10.5559 6.51942 11.4276 6.25 12.3486 6.25C13.2557 6.25 14.1045 6.47833 14.7557 6.99249C15.4171 7.5147 15.825 8.2933 15.9049 9.28679L14.9081 9.367C14.8478 8.61771 14.5546 8.10785 14.136 7.77732C13.7071 7.43872 13.0972 7.25 12.3486 7.25C11.6141 7.25 10.9765 7.46549 10.533 7.82444C10.0989 8.1758 9.82985 8.67887 9.82985 9.32689C9.82985 9.94225 10.1148 10.3401 10.469 10.6193C10.529 10.6666 10.5906 10.71 10.6526 10.75H9.2422C8.99669 10.3766 8.82985 9.90776 8.82985 9.32689C8.82985 8.36783 9.24245 7.58246 9.90385 7.04714ZM14.8235 13.75H15.893C15.9616 13.9906 16 14.257 16 14.5514C16 15.5225 15.6269 16.3437 14.9353 16.9125C14.2549 17.472 13.3131 17.75 12.228 17.75C11.1275 17.75 10.2415 17.4393 9.59988 16.8711C8.95968 16.3042 8.6107 15.5235 8.50389 14.6719L9.49611 14.5474C9.57892 15.2077 9.83893 15.7471 10.2628 16.1224C10.6852 16.4965 11.3184 16.75 12.228 16.75C13.1527 16.75 13.847 16.5128 14.3001 16.1401C14.7421 15.7766 15 15.2485 15 14.5514C15 14.2271 14.9337 13.9654 14.8235 13.75ZM6 12.75H18V11.75H6V12.75Z" fill="currentColor" fill-opacity="0.8"/>
</svg>
