<svg width="auto" height="auto" viewBox="0 0 24 24" fill="none" xmlns="http://www.w3.org/2000/svg">
<path d="M17.5269 10.6615H18.651C18.406 9.24453 17.1949 8.26453 15.6259 8.26453C13.7439 8.26453 12.37 9.68153 12.37 12.0045C12.37 14.3045 13.705 15.7355 15.676 15.7355C17.44 15.7355 18.7009 14.5785 18.7009 12.7425V11.9145H15.8429V12.8205H17.639C17.615 13.9925 16.84 14.7345 15.676 14.7345C14.394 14.7345 13.46 13.7645 13.46 11.9965C13.46 10.2355 14.3999 9.26653 15.6329 9.26653C16.5989 9.26653 17.253 9.79853 17.526 10.6615H17.5269ZM6.46295 15.6365L7.13095 13.7115H9.97095L10.636 15.6365H11.801L9.18395 8.36353H7.91595L5.29895 15.6365H6.46295ZM7.45095 12.7885L8.52295 9.68453H8.57995L9.65095 12.7885H7.45095Z" fill="currentColor" fill-opacity="0.8"/>
</svg>
