<svg width="auto" height="auto" viewBox="0 0 24 24" fill="none" xmlns="http://www.w3.org/2000/svg">
<path fill-rule="evenodd" clip-rule="evenodd" d="M14.8788 4H8.87878V3H14.8788V4ZM18.8788 13C18.8788 16.866 15.7448 20 11.8788 20C8.01279 20 4.87878 16.866 4.87878 13C4.87878 9.13401 8.01279 6 11.8788 6C13.6471 6 15.2623 6.6557 16.4945 7.73722L16.5857 7.82843L17.1416 8.38432C18.2231 9.61649 18.8788 11.2317 18.8788 13ZM18.5933 8.64917L18.707 8.53553L19.4141 7.82843L20.1212 7.12132L19.4141 6.41421L18.707 5.70711L17.9999 5L17.2928 5.70711L16.5857 6.41421L16.5181 6.4818C15.2096 5.54882 13.6083 5 11.8788 5C7.46051 5 3.87878 8.58172 3.87878 13C3.87878 17.4183 7.46051 21 11.8788 21C16.2971 21 19.8788 17.4183 19.8788 13C19.8788 11.3956 19.4065 9.90151 18.5933 8.64917ZM17.871 7.69958L17.9999 7.82843L18.707 7.12132L17.9999 6.41421L17.2985 7.11554C17.4991 7.30037 17.6902 7.49532 17.871 7.69958ZM12.3788 13V8H11.3788V13C11.3788 13.2761 11.6026 13.5 11.8788 13.5C12.1549 13.5 12.3788 13.2761 12.3788 13Z" fill="currentColor" fill-opacity="0.8"/>
</svg>
