<svg width="auto" height="auto" viewBox="0 0 24 24" fill="none" xmlns="http://www.w3.org/2000/svg">
<path fill-rule="evenodd" clip-rule="evenodd" d="M11 5.5C10.4477 5.5 10 5.94772 10 6.5H14C14 5.94772 13.5523 5.5 13 5.5H11ZM15 6.5C15 5.39543 14.1046 4.5 13 4.5H11C9.89543 4.5 9 5.39543 9 6.5H7.5H6V7.5H7V17.5C7 18.6046 7.89543 19.5 9 19.5H15C16.1046 19.5 17 18.6046 17 17.5V7.5H18V6.5H16.5H15ZM16 7.5H14.5H9.5H8V17.5C8 18.0523 8.44772 18.5 9 18.5H15C15.5523 18.5 16 18.0523 16 17.5V7.5ZM10 14.5V10.5H11V14.5H10ZM13 14.5V10.5H14V14.5H13Z" fill="currentColor" fill-opacity="0.8"/>
</svg>
