<svg width="auto" height="auto" viewBox="0 0 24 24" fill="none" xmlns="http://www.w3.org/2000/svg">
<path fill-rule="evenodd" clip-rule="evenodd" d="M7.58579 12L6.5 10.9142L5.41421 12L6.5 13.0858L7.58579 12ZM7.20711 10.2071L6.5 9.5L5.79289 10.2071L4.70711 11.2929L4 12L4.70711 12.7071L5.79289 13.7929L6.5 14.5L7.20711 13.7929L8.29289 12.7071L8.5 12.5H10.5854C10.7913 13.0826 11.3469 13.5 12 13.5C12.6531 13.5 13.2087 13.0826 13.4146 12.5H15.5L15.7071 12.7071L16.7929 13.7929L17.5 14.5L18.2071 13.7929L19.2929 12.7071L20 12L19.2929 11.2929L18.2071 10.2071L17.5 9.5L16.7929 10.2071L15.7071 11.2929L15.5 11.5H13.4146C13.2087 10.9174 12.6531 10.5 12 10.5C11.3469 10.5 10.7913 10.9174 10.5854 11.5H8.5L8.29289 11.2929L7.20711 10.2071ZM18.5858 12L17.5 10.9142L16.4142 12L17.5 13.0858L18.5858 12Z" fill="currentColor" fill-opacity="0.8"/>
</svg>
