<svg width="auto" height="auto" viewBox="0 0 24 24" fill="none" xmlns="http://www.w3.org/2000/svg">
<g clip-path="url(#clip0_15_274)">
<path fill-rule="evenodd" clip-rule="evenodd" d="M12.0001 15C9.70021 15 7.67791 13.8058 6.5217 12C7.67791 10.1942 9.70021 9 12.0001 9C14.2999 9 16.3222 10.1942 17.4784 12C16.3222 13.8058 14.2999 15 12.0001 15ZM12.0001 8C14.8781 8 17.3775 9.6211 18.635 12C17.3775 14.3789 14.8781 16 12.0001 16C9.12202 16 6.62261 14.3789 5.36511 12C6.62261 9.6211 9.12202 8 12.0001 8ZM12.0004 14C13.1049 14 14.0004 13.1046 14.0004 12C14.0004 10.8954 13.1049 10 12.0004 10C10.8958 10 10.0004 10.8954 10.0004 12C10.0004 13.1046 10.8958 14 12.0004 14Z" fill="currentColor" fill-opacity="0.8"/>
</g>
<defs>
<clipPath id="clip0_15_274">
<rect width="auto" height="auto" fill="white"/>
</clipPath>
</defs>
</svg>
