<svg width="auto" height="auto" viewBox="0 0 24 24" fill="none" xmlns="http://www.w3.org/2000/svg">
<path fill-rule="evenodd" clip-rule="evenodd" d="M12 15C9.70015 15 7.67785 13.8058 6.52164 12C7.67785 10.1942 9.70015 9 12 9C14.2999 9 16.3222 10.1942 17.4784 12C16.3222 13.8058 14.2999 15 12 15ZM12 8C14.878 8 17.3775 9.6211 18.635 12C17.3775 14.3789 14.878 16 12 16C9.12196 16 6.62254 14.3789 5.36505 12C6.62254 9.6211 9.12196 8 12 8ZM12.0003 14C13.1049 14 14.0003 13.1046 14.0003 12C14.0003 10.8954 13.1049 10 12.0003 10C10.8957 10 10.0003 10.8954 10.0003 12C10.0003 13.1046 10.8957 14 12.0003 14Z" fill="currentColor" fill-opacity="0.8"/>
</svg>
