<svg width="auto" height="auto" viewBox="0 0 24 24" fill="none" xmlns="http://www.w3.org/2000/svg">
<path fill-rule="evenodd" clip-rule="evenodd" d="M11.3463 4.7722C11.633 4.26246 12.3669 4.26246 12.6536 4.7722L20.3713 18.4924C20.6525 18.9924 20.2912 19.6101 19.7176 19.6101H4.28234C3.70872 19.6101 3.34744 18.9924 3.62866 18.4924L11.3463 4.7722ZM12 8.99183C12.497 8.99183 12.9 9.39478 12.9 9.89183V12.9796C12.9 13.4767 12.497 13.8796 12 13.8796C11.5029 13.8796 11.1 13.4767 11.1 12.9796V9.89183C11.1 9.39478 11.5029 8.99183 12 8.99183ZM13.1 16.6101C13.1 16.0026 12.6075 15.5101 12 15.5101C11.3924 15.5101 10.9 16.0026 10.9 16.6101V16.6787C10.9 17.2862 11.3924 17.7787 12 17.7787C12.6075 17.7787 13.1 17.2862 13.1 16.6787V16.6101Z" fill="currentColor" fill-opacity="0.8"/>
</svg>
