<svg width="auto" height="auto" viewBox="0 0 24 24" fill="none" xmlns="http://www.w3.org/2000/svg">
<path fill-rule="evenodd" clip-rule="evenodd" d="M12 4.75L20 19.25H4L12 4.75ZM12 9.13174C12.4971 9.13174 12.9 9.53468 12.9 10.0317V13.1195C12.9 13.6166 12.4971 14.0195 12 14.0195C11.5029 14.0195 11.1 13.6166 11.1 13.1195V10.0317C11.1 9.53468 11.5029 9.13174 12 9.13174ZM13.1001 16.5068C13.1001 15.8993 12.6076 15.4068 12.0001 15.4068C11.3926 15.4068 10.9001 15.8993 10.9001 16.5068V16.5754C10.9001 17.1829 11.3926 17.6754 12.0001 17.6754C12.6076 17.6754 13.1001 17.1829 13.1001 16.5754V16.5068Z" fill="currentColor" fill-opacity="0.8"/>
</svg>
