<svg width="auto" height="auto" viewBox="0 0 24 24" fill="none" xmlns="http://www.w3.org/2000/svg">
<path fill-rule="evenodd" clip-rule="evenodd" d="M19.2901 18.4801L12 5.51984L4.70983 18.4801L19.2901 18.4801ZM12.8716 5.02957C12.4893 4.34992 11.5107 4.34992 11.1284 5.02958L3.83825 17.9898C3.46329 18.6564 3.945 19.4801 4.70983 19.4801H19.2901C20.055 19.4801 20.5367 18.6564 20.1617 17.9898L12.8716 5.02957ZM11.9999 9.45343C12.4141 9.45343 12.7499 9.78922 12.7499 10.2034V12.7328C12.7499 13.147 12.4141 13.4828 11.9999 13.4828C11.5857 13.4828 11.2499 13.147 11.2499 12.7328V10.2034C11.2499 9.78922 11.5857 9.45343 11.9999 9.45343ZM12.9999 15.9803C12.9999 15.428 12.5522 14.9803 11.9999 14.9803C11.4476 14.9803 10.9999 15.428 10.9999 15.9803V16.0488C10.9999 16.6011 11.4476 17.0488 11.9999 17.0488C12.5522 17.0488 12.9999 16.6011 12.9999 16.0488V15.9803Z" fill="currentColor" fill-opacity="0.8"/>
</svg>
