<svg width="auto" height="auto" viewBox="0 0 24 24" fill="none" xmlns="http://www.w3.org/2000/svg">
<path fill-rule="evenodd" clip-rule="evenodd" d="M5.5 4.5C4.67157 4.5 4 5.17157 4 6V7.5V17.5003C4 18.3287 4.67157 19.0003 5.5 19.0003H7V18.0003H5.5C5.22386 18.0003 5 17.7764 5 17.5003V8H10H10.118L10.2236 7.94721L12.118 7.00001L18.5001 7.00073C18.7762 7.00076 19 7.22461 19 7.50073V17.5003C19 17.7764 18.7761 18.0003 18.5 18.0003H17V19.0003H18.5C19.3284 19.0003 20 18.3287 20 17.5003V7.50073C20 6.67236 19.3285 6.00082 18.5002 6.00073L12.1667 6.00002L10.3 4.6L10.1667 4.5H10H5.5ZM14 19.0003V18.0003H10V19.0003H14ZM9.5 7H5V6C5 5.72386 5.22386 5.5 5.5 5.5H9.5H9.83333H10L11.5 6.5L10 7H9.88197H9.5ZM9.25 14C8.55964 14 8 14.5596 8 15.25V19.5H9V15.25C9 15.1119 9.11193 15 9.25 15H14.75C14.8881 15 15 15.1119 15 15.25V19.5H16V15.25C16 14.5596 15.4404 14 14.75 14H9.25Z" fill="currentColor" fill-opacity="0.8"/>
</svg>
