<svg width="auto" height="auto" viewBox="0 0 24 24" fill="none" xmlns="http://www.w3.org/2000/svg">
<path fill-rule="evenodd" clip-rule="evenodd" d="M16.252 14.632C15.3703 16.0534 13.7957 17 12 17C9.23858 17 7 14.7614 7 12C7 11.5672 7.05498 11.1473 7.15833 10.7469L8.20141 11.138C8.37356 11.2026 8.47352 11.3824 8.43746 11.5627L8.18617 12.8191C8.15072 12.9964 8.24678 13.1737 8.41462 13.2408L9.81139 13.7996C9.92905 13.8466 10.015 13.9499 10.0398 14.0742L10.3527 15.6387C10.3673 15.7113 10.4029 15.7779 10.4553 15.8303L10.7424 16.1174C10.9275 16.3025 11.2406 16.2457 11.3489 16.0074L12.8137 12.7848C12.9107 12.5716 12.7905 12.3226 12.5633 12.2658L11.6008 12.0252C11.5348 12.0087 11.4746 11.9746 11.4266 11.9266L10.4848 10.9848C10.4145 10.9145 10.3191 10.875 10.2197 10.875H9.48176C9.33972 10.875 9.20987 10.7947 9.14635 10.6677L8.68628 9.74757C8.58672 9.54844 8.68156 9.30691 8.89002 9.22874L11.1761 8.37148C11.359 8.30286 11.4586 8.10524 11.405 7.91734L11.1628 7.06978C11.435 7.02389 11.7147 7 12 7C12.1466 7 12.2918 7.00631 12.4352 7.01867L12.4079 7.23673C12.3882 7.3945 12.4701 7.54755 12.6123 7.61865L12.9629 7.79396C13.0653 7.84516 13.1855 7.84678 13.2892 7.79837L13.9642 7.48337C13.9935 7.46971 14.0197 7.45341 14.0429 7.43502C14.7751 7.7632 15.414 8.26238 15.9088 8.88175L14.7672 8.65343C14.6757 8.63514 14.5807 8.65159 14.5007 8.69959L13.0478 9.57134C12.8797 9.67215 12.8177 9.88534 12.9053 10.0606L13.7714 11.7927C13.8349 11.9197 13.9647 12 14.1068 12H15.2171C15.3846 12 15.5317 12.111 15.5777 12.272L16.252 14.632ZM18 12C18 15.3137 15.3137 18 12 18C8.68629 18 6 15.3137 6 12C6 8.68629 8.68629 6 12 6C15.3137 6 18 8.68629 18 12Z" fill="currentColor" fill-opacity="0.8"/>
</svg>
