<svg width="auto" height="auto" viewBox="0 0 24 24" fill="none" xmlns="http://www.w3.org/2000/svg">
<path fill-rule="evenodd" clip-rule="evenodd" d="M17.7907 15.9341C16.531 17.7847 14.4074 19 12 19C8.13401 19 5 15.866 5 12C5 11.3818 5.08013 10.7824 5.23057 10.2115L7.03475 10.888C7.20689 10.9526 7.30685 11.1324 7.27079 11.3127L6.89451 13.1941C6.85906 13.3714 6.95511 13.5487 7.12295 13.6158L9.14473 14.4246C9.26239 14.4716 9.34832 14.5749 9.37317 14.6992L9.81107 16.8887C9.82559 16.9613 9.86127 17.0279 9.91362 17.0803L10.4507 17.6174C10.6358 17.8025 10.9489 17.7457 11.0573 17.5074L13.1471 12.9098C13.244 12.6966 13.1239 12.4476 12.8966 12.3908L11.4341 12.0252C11.3682 12.0087 11.3079 11.9746 11.2599 11.9266L9.94317 10.6098C9.87284 10.5395 9.77746 10.5 9.678 10.5H8.5651C8.42306 10.5 8.29321 10.4197 8.22969 10.2927L7.51962 8.87257C7.42005 8.67344 7.51489 8.43191 7.72336 8.35374L11.0094 7.12148C11.1924 7.05286 11.292 6.85524 11.2383 6.66734L10.7947 5.11477C10.7937 5.11113 10.7926 5.10752 10.7914 5.10395C11.184 5.03562 11.5879 5 12 5C12.2102 5 12.4182 5.00926 12.6237 5.02741C12.6207 5.04032 12.6183 5.05352 12.6166 5.06699L12.5329 5.73673C12.5132 5.8945 12.5951 6.04755 12.7373 6.11865L13.3379 6.41896C13.4403 6.47016 13.5605 6.47178 13.6642 6.42337L14.9642 5.8167C15.0175 5.79183 15.0606 5.75824 15.0939 5.71912C16.1371 6.23396 17.0335 7.00104 17.7035 7.9407L15.6422 7.52843C15.5507 7.51014 15.4557 7.52659 15.3757 7.57459L13.2978 8.82133C13.1297 8.92215 13.0677 9.13534 13.1553 9.3106L14.3964 11.7927C14.4599 11.9197 14.5897 12 14.7318 12H16.3838C16.5512 12 16.6984 12.111 16.7444 12.272L17.7907 15.9341ZM20 12C20 16.4183 16.4183 20 12 20C7.58172 20 4 16.4183 4 12C4 7.58172 7.58172 4 12 4C16.4183 4 20 7.58172 20 12Z" fill="currentColor" fill-opacity="0.8"/>
</svg>
